<?xml version="1.0" encoding="UTF-8"?>
<svg version="1.1" xmlns="http://www.w3.org/2000/svg" width="512" height="318">
<path d="M0 0 C0.81507019 0.32062408 1.63014038 0.64124817 2.46990967 0.97158813 C4.17557189 1.64493397 5.87960597 2.32241789 7.58203125 3.00390625 C10.17520303 4.04039271 12.77453916 5.06008476 15.375 6.078125 C17.04205846 6.73859528 18.70873884 7.40002084 20.375 8.0625 C21.14386536 8.36368744 21.91273071 8.66487488 22.70489502 8.97518921 C29.61476358 11.76125387 35.51017568 14.70944465 38.921875 21.6640625 C39.22973057 24.69792947 39.16479113 27.62761091 38.921875 30.6640625 C41.01055281 31.36028844 43.10009563 32.05398274 45.19287109 32.73779297 C46.99103237 33.34811896 48.77644703 33.99758894 50.54541016 34.68798828 C58.63950324 37.72309615 65.95665626 38.24406199 74.546875 38.2890625 C77.2945083 38.33753894 80.04173635 38.40151986 82.7890625 38.46484375 C83.4747229 38.47909897 84.1603833 38.49335419 84.86682129 38.50804138 C91.4825276 38.65328358 98.07243139 38.99945259 104.671875 39.4765625 C105.73180664 39.5485083 106.79173828 39.6204541 107.88378906 39.69458008 C113.79057917 40.16865584 119.17866592 41.16836528 124.86987305 42.79418945 C130.30939187 44.37843301 130.30939187 44.37843301 135.921875 44.6640625 C139.77242905 42.42783008 142.24334471 39.96815478 145.13671875 36.6484375 C149.79684967 31.31207834 157.01963936 28.05297306 163.921875 26.6640625 C173.98455967 26.05153655 183.64415921 27.2291228 193.546875 28.9140625 C194.89443725 29.12170472 196.24209345 29.32873817 197.58984375 29.53515625 C198.86730469 29.74785156 200.14476562 29.96054687 201.4609375 30.1796875 C202.60771973 30.36821289 203.75450195 30.55673828 204.93603516 30.75097656 C208.3067628 31.78176327 209.73421638 32.93922779 211.921875 35.6640625 C212.70661361 38.43500159 212.55181918 40.8636743 211.921875 43.6640625 C210.109375 46.2265625 210.109375 46.2265625 206.921875 47.6640625 C200.89916187 47.9980392 194.84165445 46.48730622 188.91967773 45.51025391 C174.1085608 42.48758365 174.1085608 42.48758365 159.94921875 46.13671875 C156.40980585 48.80321286 153.40581994 51.97208657 150.34375 55.1640625 C147.76319893 57.82785715 145.05448499 60.22233214 142.23828125 62.62890625 C139.75365918 64.81185414 137.34386797 67.06236217 134.93359375 69.32666016 C128.47170056 75.39246835 121.8892064 81.17783677 114.921875 86.6640625 C114.2510791 87.19676758 113.5802832 87.72947266 112.88916016 88.27832031 C104.52305404 94.91622532 96.22156983 101.42174984 87.109375 107.015625 C84.81215246 108.74674627 83.94240957 110.00835323 82.921875 112.6640625 C87.87211958 118.8091937 94.70983912 121.13755801 102.421875 122.1015625 C120.58120397 119.83164638 135.0458258 109.96544613 148.54589844 98.25537109 C153.73117182 93.80879974 157.48372971 93.2982516 164.14453125 93.39453125 C171.27057745 94.08608848 175.08035167 98.73643536 179.78125 103.58984375 C192.27103012 115.69216718 211.96703743 125.69365134 229.60644531 125.65625 C230.94357684 125.61304481 232.28051291 125.56338611 233.6171875 125.5078125 C234.29621124 125.47966461 234.97523499 125.45151672 235.67483521 125.42251587 C236.70663406 125.37893448 236.70663406 125.37893448 237.75927734 125.33447266 C251.60836976 124.75560522 261.1232488 125.22104814 271.83984375 134.88671875 C272.50032715 135.51078613 273.16081055 136.13485352 273.84130859 136.77783203 C277.49423712 140.08955766 281.54170663 142.86109895 285.546875 145.7265625 C287.13391812 146.89256328 288.7185868 148.06180329 290.30078125 149.234375 C291.0705127 149.80446289 291.84024414 150.37455078 292.63330078 150.96191406 C295.5756924 153.15034529 298.50711998 155.35306811 301.43579102 157.55981445 C304.02014432 159.50477823 306.61332964 161.43780076 309.20605469 163.37158203 C310.80422247 164.57543807 312.38341825 165.80436681 313.9609375 167.03515625 C314.83492188 167.69644531 315.70890625 168.35773438 316.609375 169.0390625 C317.33511719 169.60367188 318.06085938 170.16828125 318.80859375 170.75 C320.91898132 171.93690325 320.91898132 171.93690325 323.18383789 170.94775391 C328.03049959 168.67546258 332.43117071 165.6806376 336.92529297 162.78710938 C338.6764052 161.6611496 340.43354534 160.54507401 342.19140625 159.4296875 C343.29355469 158.72328125 344.39570313 158.016875 345.53125 157.2890625 C346.54155273 156.64195312 347.55185547 155.99484375 348.59277344 155.328125 C351.01175278 153.87412575 351.01175278 153.87412575 351.921875 151.6640625 C351.19762468 149.13325689 351.19762468 149.13325689 349.9921875 146.19921875 C349.53521484 145.02866943 349.07824219 143.85812012 348.60742188 142.65209961 C348.08741251 141.34351851 347.56722405 140.03500856 347.046875 138.7265625 C346.50783659 137.35514535 345.96944178 135.98347508 345.43164062 134.61157227 C343.93101233 130.78993864 342.42021685 126.97239102 340.90783691 123.15539551 C339.54211854 119.70449218 338.18250692 116.25119442 336.82273865 112.79794312 C330.97795736 97.95614649 325.12575395 83.11717661 319.16796875 68.3203125 C318.88172638 67.6085939 318.59548401 66.89687531 318.30056763 66.16358948 C316.97983462 62.88047852 315.65560781 59.59887276 314.32421875 56.32006836 C313.87046875 55.19479736 313.41671875 54.06952637 312.94921875 52.91015625 C312.55468506 51.93747803 312.16015137 50.9647998 311.75366211 49.96264648 C310.921875 47.6640625 310.921875 47.6640625 310.921875 45.6640625 C309.78492188 46.12296875 308.64796875 46.581875 307.4765625 47.0546875 C302.64758367 48.98533238 297.79244657 50.84115258 292.921875 52.6640625 C291.73078125 53.11136719 290.5396875 53.55867188 289.3125 54.01953125 C275.27110453 58.6720032 260.86149413 57.27416632 246.484375 54.9765625 C245.50734619 54.82832031 244.53031738 54.68007813 243.52368164 54.52734375 C237.92932359 53.52311505 234.39715355 52.51328838 230.921875 47.6640625 C230.77629691 43.51508692 231.30710777 41.48375214 233.796875 38.1640625 C239.38273951 35.48284754 245.03635552 37.16400457 250.96484375 38.19140625 C269.07073889 41.27278219 281.42232724 38.90198219 298.51855469 32.51196289 C300.64189782 31.7628395 302.72875273 31.16524758 304.921875 30.6640625 C304.87546875 30.08398438 304.8290625 29.50390625 304.78125 28.90625 C304.52017806 23.25590738 304.96178247 20.02016428 308.921875 15.6640625 C313.98585771 11.97522751 319.40276839 9.41725022 325.2265625 7.18359375 C325.9905838 6.88466721 326.7546051 6.58574066 327.54177856 6.27775574 C329.14526584 5.65290207 330.75034484 5.03211876 332.35693359 4.4152832 C334.78846549 3.4797979 337.21269019 2.52699999 339.63671875 1.57226562 C360.94687088 -6.73637291 360.94687088 -6.73637291 369.03515625 -3.6484375 C374.45353469 0.12086924 376.9910491 5.41103939 379.26171875 11.37890625 C379.69587852 12.47810143 379.69587852 12.47810143 380.1388092 13.59950256 C381.05638095 15.9294886 381.95820024 18.26519246 382.859375 20.6015625 C383.45923031 22.13387741 384.0601343 23.66578223 384.66210938 25.19726562 C385.55544558 27.4707344 386.44581449 29.74509083 387.32577515 32.02377319 C388.73050584 35.65934073 390.16600668 39.27266858 391.69970703 42.85595703 C392.1202108 43.85351768 392.1202108 43.85351768 392.54920959 44.87123108 C393.30863678 46.66397232 394.08259891 48.45053706 394.85766602 50.23657227 C396.14365376 54.37834376 396.21590014 57.34424178 395.921875 61.6640625 C394.421875 64.1640625 394.421875 64.1640625 391.921875 65.6640625 C389.01289927 66.17327958 386.94060544 65.99947699 383.921875 65.6640625 C381.15455709 63.55124939 380.09943117 61.15801457 378.8371582 57.96484375 C378.45699051 57.01375732 378.07682281 56.0626709 377.68513489 55.08276367 C377.28501694 54.05771729 376.88489899 53.0326709 376.47265625 51.9765625 C376.05517624 50.92251221 375.63769623 49.86846191 375.20756531 48.7824707 C374.32724579 46.55470401 373.45077863 44.32541174 372.57788086 42.09472656 C371.23817725 38.67377161 369.88472049 35.25850259 368.52929688 31.84375 C367.67626076 29.68001161 366.82402004 27.51595944 365.97265625 25.3515625 C365.36337029 23.81399292 365.36337029 23.81399292 364.74177551 22.24536133 C364.18570869 20.81873169 364.18570869 20.81873169 363.6184082 19.36328125 C363.28992386 18.52627686 362.96143951 17.68927246 362.6230011 16.8269043 C361.921875 14.6640625 361.921875 14.6640625 361.921875 11.6640625 C357.63453074 13.3164565 353.34785528 14.97057009 349.06176758 16.6262207 C347.60621719 17.1882074 346.15049102 17.74973906 344.69458008 18.31079102 C342.59148553 19.12133619 340.48904677 19.9335628 338.38671875 20.74609375 C337.74476059 20.99309525 337.10280243 21.24009674 336.44139099 21.49458313 C333.30602166 22.70816361 330.21099873 23.97413047 327.14282227 25.34643555 C323.921875 26.6640625 323.921875 26.6640625 320.921875 26.6640625 C321.19945648 27.34057861 321.47703796 28.01709473 321.76303101 28.71411133 C328.36563764 44.8221379 334.84285972 60.9723203 341.1854248 77.1847229 C343.06848623 81.99709885 344.95650662 86.80752491 346.84411621 91.61811829 C348.27768247 95.27177752 349.71070355 98.92565011 351.14355469 102.57958984 C352.06965434 104.94108352 352.99576096 107.30257446 353.921875 109.6640625 C354.3614856 110.78508362 354.80109619 111.90610474 355.25402832 113.06109619 C357.68644668 119.26249314 360.12229655 125.46251909 362.56365967 131.66040039 C363.29810124 133.52674033 364.03123112 135.39359703 364.76300049 137.26098633 C365.76583603 139.81981405 366.77298084 142.37690318 367.78125 144.93359375 C368.07291046 145.68083206 368.36457092 146.42807037 368.66506958 147.19795227 C369.87948168 150.26532219 371.08385581 152.90703371 372.921875 155.6640625 C385.461875 150.7140625 398.001875 145.7640625 410.921875 140.6640625 C409.12013537 134.65826374 407.4362328 129.14246728 405.109375 123.40625 C404.85438232 122.77349152 404.59938965 122.14073303 404.33666992 121.48880005 C403.53588633 119.50384578 402.72917725 117.52137325 401.921875 115.5390625 C399.91459175 110.58365745 397.91391438 105.62561754 395.921875 100.6640625 C395.40451782 99.37918945 395.40451782 99.37918945 394.87670898 98.06835938 C393.20387821 93.79296639 392.40249026 91.1209244 393.921875 86.6640625 C396.07268611 83.63699502 397.18137774 82.79010459 400.859375 82.1640625 C404.84483526 82.81474989 406.06033584 83.77591063 408.921875 86.6640625 C410.77144397 90.03421488 412.16139285 93.55841456 413.56640625 97.1328125 C413.98105637 98.16410278 414.39570648 99.19539307 414.82292175 100.25793457 C415.69499939 102.44047121 416.55943951 104.62607298 417.41674805 106.81445312 C418.72280345 110.13464586 420.06561992 113.43822143 421.41210938 116.7421875 C422.25749498 118.8714894 423.10066526 121.00167243 423.94140625 123.1328125 C424.54128105 124.59599915 424.54128105 124.59599915 425.15327454 126.08874512 C427.80548956 132.98533277 428.76524546 139.27939088 427.921875 146.6640625 C424.33007406 154.70969661 415.76323918 157.30581733 408.03125 160.30078125 C407.20481995 160.62569046 406.37838989 160.95059967 405.5269165 161.28535461 C402.91052014 162.31248674 400.29124267 163.33203514 397.671875 164.3515625 C395.89824988 165.04704776 394.12481049 165.74300687 392.3515625 166.43945312 C374.01967312 173.62585676 374.01967312 173.62585676 366.921875 172.6640625 C364.91005043 171.34863874 362.90787837 170.0181557 360.921875 168.6640625 C355.96299286 169.92862261 351.7085776 173.24984098 347.484375 176.0390625 C346.37739258 176.76222656 346.37739258 176.76222656 345.24804688 177.5 C341.12383148 180.19815336 337.01853724 182.9242979 332.921875 185.6640625 C333.08042969 186.52515625 333.23898437 187.38625 333.40234375 188.2734375 C334.99983829 198.69919135 334.42044415 207.67692318 328.63671875 216.66015625 C323.78625517 222.94279014 316.75287949 226.72963325 309.05078125 228.39453125 C305.01435583 228.90556493 300.98061624 228.81377017 296.921875 228.6640625 C296.75171875 229.31632813 296.5815625 229.96859375 296.40625 230.640625 C293.71018407 240.36367127 288.99021527 247.66448725 280.0234375 252.73828125 C273.91022064 255.47454644 268.49501539 255.77547166 261.921875 255.6640625 C261.70273437 256.5096875 261.48359375 257.3553125 261.2578125 258.2265625 C258.54310277 267.93771924 255.71735672 274.47390222 247.109375 280.0390625 C238.70871504 284.64061803 231.33389304 285.25686555 221.921875 283.6640625 C221.261875 283.3340625 220.601875 283.0040625 219.921875 282.6640625 C219.86 284.365625 219.86 284.365625 219.796875 286.1015625 C218.8317673 293.67497712 213.62997317 299.86429934 207.73828125 304.4453125 C200.10346871 309.56802543 190.84327643 310.03351756 181.921875 308.6640625 C173.75860339 305.98102918 166.75126525 300.77099592 159.921875 295.6640625 C159.62410156 296.27507812 159.32632813 296.88609375 159.01953125 297.515625 C155.57175374 304.26394398 149.7107305 308.822195 142.6875 311.5234375 C134.02243634 313.79724853 126.06029608 312.51574573 118.25 308.2421875 C111.68338451 303.79099177 108.059289 298.20787662 105.921875 290.6640625 C105.921875 289.3440625 105.921875 288.0240625 105.921875 286.6640625 C104.808125 286.7465625 103.694375 286.8290625 102.546875 286.9140625 C94.91459472 286.88704558 87.90857862 283.53896354 82.390625 278.359375 C77.7962147 273.05625248 76.41237328 267.53103842 75.921875 260.6640625 C75.31601563 260.72207031 74.71015625 260.78007812 74.0859375 260.83984375 C66.92563657 261.22539842 61.80220303 259.81093878 55.921875 255.6640625 C51.45735777 251.53550393 47.82509112 247.5150388 45.921875 241.6640625 C45.796875 238.3515625 45.796875 238.3515625 45.921875 235.6640625 C45.24382812 235.64988281 44.56578125 235.63570312 43.8671875 235.62109375 C35.14013252 235.1738624 27.68921723 232.98836892 21.546875 226.4765625 C16.08655938 219.30989825 13.85621258 211.58227404 14.921875 202.6640625 C15.38756822 200.88131794 15.89695901 199.10941845 16.44921875 197.3515625 C16.7237085 196.46855469 16.99819824 195.58554688 17.28100586 194.67578125 C17.49249268 194.01191406 17.70397949 193.34804687 17.921875 192.6640625 C16.72400768 191.906172 15.52607662 191.14838224 14.328125 190.390625 C13.16446411 189.65416748 13.16446411 189.65416748 11.97729492 188.90283203 C10.26307271 187.82028605 8.5470635 186.740565 6.8293457 185.66357422 C2.61703773 183.01962488 -1.56899144 180.35274028 -5.69140625 177.5703125 C-6.40167969 177.10028809 -7.11195312 176.63026367 -7.84375 176.14599609 C-9.18160318 175.2590939 -10.50908791 174.35629464 -11.82421875 173.43603516 C-13.85238325 172.04372672 -13.85238325 172.04372672 -17.078125 170.6640625 C-20.04624862 171.35951296 -20.04624862 171.35951296 -23.078125 172.6640625 C-29.72905139 173.45885018 -35.0897002 171.993435 -41.20703125 169.5234375 C-42.04096909 169.19998352 -42.87490692 168.87652954 -43.7341156 168.54327393 C-46.37537856 167.51426062 -49.00767984 166.46414782 -51.640625 165.4140625 C-53.41029918 164.72395602 -55.18047812 164.03514244 -56.95117188 163.34765625 C-58.66192008 162.67826221 -60.37222222 162.00772682 -62.08203125 161.3359375 C-62.86558487 161.02847595 -63.64913849 160.7210144 -64.45643616 160.40423584 C-80.38993077 154.04045096 -80.38993077 154.04045096 -84.078125 146.6640625 C-85.19432479 137.14719871 -82.7676881 129.92338475 -79.015625 121.2890625 C-78.466748 119.97939375 -77.92043941 118.66864616 -77.37646484 117.35693359 C-76.21470162 114.55779858 -75.04457862 111.76237324 -73.86962891 108.96875 C-71.18068086 102.54277717 -68.64373859 96.05697891 -66.099823 89.5725708 C-65.1937588 87.26521076 -64.28405345 84.95931787 -63.37329102 82.65380859 C-59.61099766 73.1259408 -55.87450049 63.58817545 -52.15001297 54.04546738 C-50.66102253 50.23203191 -49.16955341 46.41956496 -47.67809105 42.60709572 C-46.44956563 39.46592712 -45.22293384 36.32404487 -44.00054932 33.18048096 C-42.62179997 29.63687558 -41.23722193 26.09559548 -39.8515625 22.5546875 C-39.23985199 20.97562119 -39.23985199 20.97562119 -38.61578369 19.36465454 C-30.86739268 -0.3739866 -30.86739268 -0.3739866 -22.390625 -4.7109375 C-14.79372444 -6.14431496 -6.99358342 -2.80596913 0 0 Z M-18.078125 11.6640625 C-18.53437256 12.83235596 -18.99062012 14.00064941 -19.46069336 15.2043457 C-27.51395144 35.82211152 -35.57620055 56.43617928 -43.71932983 77.01864624 C-44.76411654 79.66024857 -45.8075896 82.30236677 -46.85083008 84.94458008 C-50.01528153 92.95447729 -53.19129616 100.95924804 -56.40699768 108.94873047 C-57.83749497 112.50526456 -59.26121763 116.06449088 -60.68423462 119.62402344 C-61.3583104 121.3044582 -62.03581078 122.98352368 -62.71688843 124.66113281 C-63.65041857 126.96091158 -64.57251133 129.264966 -65.4921875 131.5703125 C-65.77142563 132.24936646 -66.05066376 132.92842041 -66.33836365 133.62805176 C-67.93689308 137.56063836 -67.93689308 137.56063836 -67.078125 141.6640625 C-64.3064535 143.00981013 -61.60564662 144.16898023 -58.73828125 145.2734375 C-57.90098984 145.604505 -57.06369843 145.93557251 -56.20103455 146.27667236 C-54.4285462 146.97453541 -52.65385837 147.66683357 -50.87719727 148.35400391 C-48.14989958 149.41046983 -45.43116722 150.48697111 -42.71289062 151.56640625 C-40.99266051 152.24079115 -39.27197201 152.91400819 -37.55078125 153.5859375 C-36.73303726 153.90979431 -35.91529327 154.23365112 -35.07276917 154.56732178 C-33.09642212 155.32586947 -31.08921886 156.00312094 -29.078125 156.6640625 C-26.19377372 155.22188686 -26.05272726 153.47108085 -24.92578125 150.47265625 C-24.48935303 149.32611572 -24.0529248 148.1795752 -23.60327148 146.99829102 C-23.36712128 146.36883575 -23.13097107 145.73938049 -22.88766479 145.09085083 C-21.56354993 141.56487235 -20.2136586 138.04873811 -18.8671875 134.53125 C-18.57112106 133.75618607 -18.27505463 132.98112213 -17.97001648 132.18257141 C-14.45877201 123.00915934 -10.83724024 113.87961385 -7.21496582 104.74960327 C-6.01042242 101.71344895 -4.80729942 98.67673508 -3.60449219 95.63989258 C0.25722992 85.89241819 4.12608432 76.14780968 8.0037384 66.40666199 C9.7799047 61.94335715 11.55354918 57.47905244 13.32687378 53.01461792 C14.17919921 50.87097635 15.03280874 48.72784489 15.88772583 46.5852356 C17.07272193 43.61531421 18.2536012 40.64378718 19.43359375 37.671875 C19.78886139 36.78468277 20.14412903 35.89749054 20.51016235 34.9834137 C20.82996063 34.17564987 21.14975891 33.36788605 21.47924805 32.53564453 C21.89958565 31.48040085 21.89958565 31.48040085 22.32841492 30.40383911 C23.02949055 28.65494714 23.02949055 28.65494714 22.921875 26.6640625 C17.56760849 24.52129211 12.21073467 22.38522835 6.85131836 20.25537109 C5.0279918 19.52967706 3.20539503 18.80214665 1.38354492 18.07275391 C-1.23329613 17.02544752 -3.85267939 15.98474506 -6.47265625 14.9453125 C-7.28837601 14.61720581 -8.10409576 14.28909912 -8.9445343 13.9510498 C-10.08537727 13.50058289 -10.08537727 13.50058289 -11.24926758 13.04101562 C-11.91767166 12.77454224 -12.58607574 12.50806885 -13.2747345 12.23352051 C-15.23972496 11.51350493 -15.23972496 11.51350493 -18.078125 11.6640625 Z M32.921875 45.6640625 C26.11972285 62.19494919 19.46351686 78.77922097 12.92944336 95.41772461 C12.288989 97.04804939 11.64844409 98.6783386 11.0078125 100.30859375 C10.68464554 101.13099045 10.36147858 101.95338715 10.02851868 102.80070496 C7.82981281 108.38546539 5.60423624 113.95897176 3.36428833 119.52731323 C1.7671843 123.49884728 0.17691878 127.47310471 -1.4130249 131.44750977 C-2.18722874 133.3772399 -2.96475639 135.30563998 -3.7456665 137.23266602 C-4.83375541 139.91870854 -5.91024942 142.60913066 -6.984375 145.30078125 C-7.31376068 146.10521164 -7.64314636 146.90964203 -7.98251343 147.7384491 C-9.84535826 152.11144032 -9.84535826 152.11144032 -9.078125 156.6640625 C-7.56090406 157.91128918 -7.56090406 157.91128918 -5.640625 158.9765625 C-4.9182666 159.40727051 -4.1959082 159.83797852 -3.45166016 160.28173828 C-2.66839355 160.73790527 -1.88512695 161.19407227 -1.078125 161.6640625 C0.56120948 162.6384182 2.19919662 163.61504379 3.8359375 164.59375 C5.09712402 165.34736816 5.09712402 165.34736816 6.38378906 166.11621094 C11.15051264 169.02319704 15.79893796 172.116174 20.4375 175.22265625 C21.10007812 175.65964844 21.76265625 176.09664062 22.4453125 176.546875 C23.02200684 176.93246582 23.59870117 177.31805664 24.19287109 177.71533203 C26.07875074 178.75014258 27.82228422 179.23103269 29.921875 179.6640625 C30.540625 178.96845215 30.540625 178.96845215 31.171875 178.25878906 C33.07615814 176.13241039 34.9986936 174.02335823 36.921875 171.9140625 C37.57027344 171.18445313 38.21867187 170.45484375 38.88671875 169.703125 C45.29053515 162.7286715 51.56101273 159.16295366 61.109375 158.4140625 C69.69554619 158.97709012 75.7571787 161.41352347 82.0078125 167.41015625 C86.11194282 172.24297909 87.80131352 177.51174898 88.921875 183.6640625 C90.08203125 183.81101563 90.08203125 183.81101563 91.265625 183.9609375 C100.68382649 185.31305554 107.63648258 187.12924279 113.671875 194.8046875 C116.83940996 199.51639575 118.07659914 204.1348727 118.921875 209.6640625 C119.79070312 209.77363281 120.65953125 209.88320312 121.5546875 209.99609375 C132.27239947 211.47067828 138.2911959 213.67141895 145.046875 222.4140625 C146.921875 225.6640625 146.921875 225.6640625 147.34375 227.94140625 C147.8569479 230.67108817 148.28318298 232.40132064 149.921875 234.6640625 C153.39392988 235.84986132 156.77079921 236.37638418 160.39453125 236.93359375 C166.53982915 238.20620804 169.98339793 241.67319415 174.234375 246.0390625 C178.90695288 253.30751698 179.92826405 260.14257258 178.921875 268.6640625 C177.51530782 273.75942106 175.91228647 278.08526941 171.921875 281.6640625 C173.80422787 287.3111211 179.83380183 290.03815585 184.921875 292.6640625 C189.98270743 293.85360448 193.58333528 293.25896904 198.296875 291.1640625 C202.1943876 287.45214574 204.59075616 283.9456867 205.140625 278.49609375 C204.64825642 273.52844651 202.51496356 270.95097183 198.7734375 267.71630859 C195.65901741 265.18394323 192.44051945 262.78671808 189.21313477 260.40087891 C185.10021867 257.21420737 185.10021867 257.21420737 184.23046875 254.53125 C184.41547035 251.67213438 184.62839801 249.21648978 185.984375 246.6640625 C189.15658105 245.02679486 191.38166359 245.26912434 194.921875 245.6640625 C197.90615298 247.30960941 200.43466492 249.4246207 203.046875 251.6015625 C204.54530416 252.79494379 206.04532044 253.98633484 207.546875 255.17578125 C208.28421875 255.76665527 209.0215625 256.3575293 209.78125 256.96630859 C212.81058526 259.36890867 215.89764144 261.67165417 219.046875 263.9140625 C220.01882813 264.62046875 220.99078125 265.326875 221.9921875 266.0546875 C225.40146623 267.92751795 228.05333552 268.43464911 231.921875 268.6640625 C237.80409638 266.93996313 240.44607727 264.46884171 243.921875 259.6640625 C245.45784954 256.59211342 245.1483788 254.06161957 244.921875 250.6640625 C242.761733 244.52381634 238.62784297 241.71246502 233.546875 238.0390625 C232.03883292 236.92218492 230.53101481 235.80500486 229.0234375 234.6875 C228.31348633 234.16897461 227.60353516 233.65044922 226.87207031 233.11621094 C225.21342884 231.88115843 223.60450168 230.57979009 222.0078125 229.265625 C220.09579223 227.46106494 220.09579223 227.46106494 217.921875 227.6640625 C216.43102668 223.19151753 216.43102668 219.13660747 217.921875 214.6640625 C223.2913597 214.08646853 227.56246735 213.90184818 232.08984375 217.12109375 C233.44836319 218.21682417 234.78777652 219.33657229 236.109375 220.4765625 C237.58126784 221.66630966 239.05393994 222.85509332 240.52734375 224.04296875 C241.25872559 224.64641113 241.99010742 225.24985352 242.74365234 225.87158203 C246.08541378 228.6215498 249.4813636 231.28916482 252.921875 233.9140625 C253.49574951 234.37917236 254.06962402 234.84428223 254.66088867 235.32348633 C259.1219635 238.72139283 263.30489068 239.80724317 268.921875 239.6640625 C274.08814828 237.97508854 276.90775525 235.14218327 279.921875 230.6640625 C281.19576135 226.28507816 281.37438177 222.69942051 279.29296875 218.52734375 C276.01456904 214.07208261 271.31962654 210.94162069 266.921875 207.6640625 C266.24141113 207.15552734 265.56094727 206.64699219 264.85986328 206.12304688 C264.13911621 205.58486328 263.41836914 205.04667969 262.67578125 204.4921875 C261.95156982 203.95102295 261.2273584 203.4098584 260.48120117 202.85229492 C259.03905204 201.77894396 257.59266085 200.71126634 256.1418457 199.6496582 C255.47886475 199.16070068 254.81588379 198.67174316 254.1328125 198.16796875 C253.53774902 197.73299072 252.94268555 197.2980127 252.32958984 196.84985352 C250.921875 195.6640625 250.921875 195.6640625 249.921875 193.6640625 C249.47565986 187.52860433 249.47565986 187.52860433 250.921875 184.7265625 C254.19626609 182.98704223 257.36229435 182.99275851 260.921875 183.6640625 C264.07837652 185.36704837 266.69794784 187.5951411 269.421875 189.9140625 C271.00171825 191.1977057 272.58246631 192.480236 274.1640625 193.76171875 C274.95522461 194.41285645 275.74638672 195.06399414 276.56152344 195.73486328 C280.16722203 198.68192889 283.84258433 201.53000395 287.546875 204.3515625 C288.48563477 205.08971191 288.48563477 205.08971191 289.44335938 205.84277344 C293.94746635 209.27733527 299.22562807 212.89753119 305.12890625 212.5246582 C310.81673423 211.48904159 313.95192988 208.47826982 317.234375 203.7890625 C318.61006557 199.536928 318.32231775 195.86539075 316.921875 191.6640625 C312.29934682 184.73027023 304.78571347 179.93983515 298.109375 175.1015625 C296.42826642 173.87386084 294.74728034 172.64599143 293.06640625 171.41796875 C292.21385254 170.79680176 291.36129883 170.17563477 290.48291016 169.53564453 C287.20116062 167.13737075 283.93544725 164.71794465 280.67285156 162.29370117 C279.08636599 161.12209495 277.4931951 159.95948879 275.89355469 158.8059082 C272.07022454 156.0450061 268.39253041 153.24776382 264.86328125 150.1171875 C253.33741838 140.29567495 243.53347387 140.81699226 228.84863281 141.59082031 C207.12970416 142.13433705 184.98858651 129.38010457 168.921875 115.6640625 C167.71454169 114.45437112 166.52199632 113.22928697 165.359375 111.9765625 C164.1528125 110.831875 164.1528125 110.831875 162.921875 109.6640625 C158.83140067 109.82274469 156.41310435 112.62368906 153.484375 115.2265625 C139.07551511 127.62980169 119.84296834 138.7891743 100.1953125 137.94921875 C91.61985881 136.87360342 84.12650143 134.44804904 76.921875 129.6640625 C76.34566406 129.29539062 75.76945312 128.92671875 75.17578125 128.546875 C70.58732991 125.22854361 68.53453995 120.9393902 66.921875 115.6640625 C66.26000593 110.27455719 67.21556752 105.3747001 69.921875 100.6640625 C73.61298083 96.50317957 77.76001358 93.57548557 82.359375 90.5390625 C92.98597322 83.3673874 102.90245843 75.45658947 112.671875 67.1640625 C113.56737061 66.4071814 113.56737061 66.4071814 114.48095703 65.63500977 C117.04856047 63.42848725 119.03165629 61.49939056 120.921875 58.6640625 C114.37201052 56.26777062 107.91443772 55.57823914 100.984375 55.1640625 C99.94470581 55.100979 99.94470581 55.100979 98.8840332 55.03662109 C93.63020119 54.74452882 88.37753085 54.59570338 83.1171875 54.484375 C81.70564355 54.4513526 80.29410386 54.41814745 78.88256836 54.38476562 C76.08652573 54.31886121 73.29092209 54.27090422 70.49438477 54.23242188 C59.33840157 53.97629135 49.59153228 51.83183569 39.171875 47.9765625 C37.98078125 47.53957031 36.7896875 47.10257813 35.5625 46.65234375 C34.69109375 46.32621094 33.8196875 46.00007813 32.921875 45.6640625 Z M51.0625 179.34375 C50.08792906 180.39877176 49.12478364 181.46443486 48.171875 182.5390625 C47.66035889 183.1077002 47.14884277 183.67633789 46.62182617 184.26220703 C43.05982992 188.27089865 39.58647382 192.35324917 36.234375 196.5390625 C35.42613281 197.54710937 34.61789063 198.55515625 33.78515625 199.59375 C31.66455439 203.08807507 31.12752736 205.60362409 30.921875 209.6640625 C32.16679144 213.63223365 33.74808859 215.84988315 37.171875 218.1015625 C41.02162119 220.04267925 43.75393652 219.89900724 47.921875 218.6640625 C51.6296142 216.02244639 54.36462816 213.10530571 57.171875 209.5390625 C60.96264255 204.79584079 64.93013769 200.29190121 69.07421875 195.85546875 C72.36146654 191.95663997 73.44051379 188.89551889 73.3046875 183.6953125 C72.59685231 179.9394523 70.69619993 178.25343243 67.921875 175.6640625 C61.1172739 172.09974764 56.45808584 174.28723103 51.0625 179.34375 Z M67.921875 220.6640625 C67.30441406 221.41429687 66.68695313 222.16453125 66.05078125 222.9375 C63.0302303 226.71862133 60.81218428 229.61828934 60.921875 234.6640625 C62.58777669 239.2915672 64.64417349 242.19250163 68.921875 244.6640625 C73.75141484 245.2773374 77.28420654 245.32979164 81.30859375 242.23828125 C84.3118738 239.30771984 86.87979009 236.03499546 89.47265625 232.7421875 C91.16422477 230.61626088 92.86231443 228.56086924 94.65234375 226.5234375 C95.32958496 225.74419922 95.32958496 225.74419922 96.02050781 224.94921875 C97.29323718 223.48989667 98.5741371 222.03771233 99.85546875 220.5859375 C102.18583851 217.29082108 103.15730978 214.61507919 103.921875 210.6640625 C102.73626065 206.29210957 101.53590311 204.19622019 98.109375 201.2265625 C84.88390813 194.7434905 74.99302711 211.7577475 67.921875 220.6640625 Z M108.671875 233.7265625 C104.9177008 238.46636438 100.9914668 242.95507343 96.8671875 247.375 C93.11373225 251.79171642 91.3802941 254.97846015 91.640625 260.73828125 C92.07344583 263.70190168 92.97659609 265.39457044 94.921875 267.6640625 C99.03865282 270.53623307 102.07744199 270.94940562 106.89453125 270.4765625 C109.97244214 269.24302596 111.68685546 267.08020747 113.921875 264.6640625 C115.10716797 263.40529297 115.10716797 263.40529297 116.31640625 262.12109375 C128.42875844 250.52290036 128.42875844 250.52290036 133.859375 235.7265625 C133.20202422 231.429733 131.31473962 229.39490475 127.921875 226.6640625 C119.81228318 222.60926659 113.52873765 227.47560038 108.671875 233.7265625 Z M142.921875 254.6640625 C140.97786237 256.66009801 139.26376224 258.56004492 137.546875 260.7265625 C136.85295654 261.57504761 136.85295654 261.57504761 136.14501953 262.44067383 C135.19557785 263.60350423 134.25072511 264.77009686 133.31054688 265.94042969 C131.97123094 267.60280143 130.61473534 269.2490897 129.25 270.890625 C122.79865601 278.25048576 122.79865601 278.25048576 121.921875 287.6640625 C123.8513304 291.67732974 125.41446629 293.35770252 129.234375 295.6640625 C133.84684368 296.91490146 135.59891668 296.7117796 139.921875 294.6640625 C145.67497599 290.00960297 150.22167477 284.02616555 154.8046875 278.26171875 C156.59317586 276.06735572 158.45425744 274.0678739 160.421875 272.0390625 C163.18495731 268.83727353 163.89421188 265.93248795 164.09375 261.7421875 C163.76384294 257.75331127 161.9029645 255.645152 159.171875 252.9140625 C152.92324012 249.44259868 148.4466788 250.69155652 142.921875 254.6640625 Z " fill="#000000" transform="translate(84.078125,5.3359375)"/>
</svg>
