<?xml version="1.0" encoding="UTF-8"?>
<svg version="1.1" xmlns="http://www.w3.org/2000/svg" width="496" height="512">
<path d="M0 0 C0.94804504 0.00182281 1.89609009 0.00364563 2.87286377 0.00552368 C17.07266195 0.05147433 30.9793375 0.47085006 44.9375 3.3125 C45.81905762 3.48942383 46.70061523 3.66634766 47.60888672 3.84863281 C78.88869245 10.32494517 108.88812785 22.72013683 134.9375 41.3125 C135.53739746 41.73724609 136.13729492 42.16199219 136.75537109 42.59960938 C147.2547126 50.07917042 156.71110469 58.32387021 165.9375 67.3125 C166.8759375 68.21097656 167.814375 69.10945313 168.78125 70.03515625 C211.02469064 111.17035848 234.16336283 170.88488815 235.22314453 229.31665039 C235.44584612 258.82461086 230.21352571 286.4973915 221.8125 314.6875 C221.48805908 315.79359619 221.16361816 316.89969238 220.8293457 318.03930664 C220.35307739 319.57832642 220.35307739 319.57832642 219.8671875 321.1484375 C219.59116699 322.05126465 219.31514648 322.9540918 219.03076172 323.88427734 C217.76097784 326.70456999 216.27851821 328.31222683 213.9375 330.3125 C211.1735982 331.09524563 208.72722816 330.96991545 205.9375 330.3125 C203.00063115 327.81616148 202.02427359 326.37921671 201.7109375 322.52734375 C201.95922598 319.00421587 202.84302962 316.30710675 204.0625 313 C205.92730389 307.19397937 206.53092822 302.92810869 203.9375 297.3125 C200.76928716 291.45292268 196.34709853 288.32156607 190.9375 284.5625 C190.13054687 283.98628906 189.32359375 283.41007812 188.4921875 282.81640625 C185.05073915 280.38013341 181.72640878 278.1685416 177.9375 276.3125 C177.60282211 277.23922768 177.60282211 277.23922768 177.26138306 278.18467712 C167.12547897 306.24758296 156.9720021 334.30363757 146.6875 362.3125 C146.10394745 363.90347 146.10394745 363.90347 145.50860596 365.52658081 C144.41857838 368.49739762 143.32684276 371.46757979 142.234375 374.4375 C141.91244171 375.31495377 141.59050842 376.19240753 141.25881958 377.09645081 C140.96554779 377.89220016 140.672276 378.68794952 140.37011719 379.5078125 C140.11591003 380.19891113 139.86170288 380.89000977 139.59979248 381.60205078 C138.9375 383.3125 138.9375 383.3125 137.9375 385.3125 C142.36655723 385.4119692 146.79500909 385.48424818 151.22485352 385.53222656 C152.72920062 385.55224363 154.23347089 385.57946627 155.73754883 385.61425781 C157.90986162 385.66321945 160.08113906 385.68556653 162.25390625 385.703125 C164.20985718 385.7345459 164.20985718 385.7345459 166.20532227 385.76660156 C171.63123861 385.10641942 175.23806811 382.9969721 179.15625 379.11328125 C181.5053904 375.41956707 182.95304498 371.60428089 184.4375 367.5 C190.36216704 351.36272198 190.36216704 351.36272198 194.9375 348.3125 C198.95421881 347.70126018 200.48286823 348.00296348 203.875 350.3125 C206.19486734 353.68685249 206.09862788 354.97102101 205.47875977 358.89550781 C202.10618993 373.95569787 196.5613772 387.34224096 184.59448242 397.25292969 C180.78673624 401.10560593 179.21884575 406.13423813 177.28515625 411.09765625 C176.86254013 412.14972763 176.43992401 413.20179901 176.00450134 414.28575134 C174.65751702 417.64413074 173.32783689 421.00900942 172 424.375 C170.673101 427.71485822 169.34243656 431.05312925 168.00621033 434.38926697 C167.17756255 436.46056626 166.35452649 438.53412353 165.53834534 440.61036682 C161.0182995 451.96245674 156.10474497 462.13407232 147.9375 471.3125 C147.33292969 472.01117188 146.72835938 472.70984375 146.10546875 473.4296875 C135.35523941 485.06256725 118.43381618 493.38890389 102.51779175 494.47808838 C99.96436663 494.52197116 97.41687869 494.51083357 94.86328125 494.48046875 C92.96028144 494.4861409 91.05728568 494.49334757 89.15429688 494.50195312 C86.19145771 494.50613897 83.23000991 494.49977911 80.26733398 494.46704102 C77.38168309 494.44011685 74.49890346 494.45691156 71.61328125 494.48046875 C70.73190994 494.45993942 69.85053864 494.4394101 68.94245911 494.41825867 C64.12730279 494.48695911 64.12730279 494.48695911 60.08070374 496.8611908 C58.58071517 498.61690972 57.26486266 500.42557797 55.9375 502.3125 C45.36915536 511.35747964 33.49597196 513.47118859 20.00830078 512.53564453 C8.95794592 511.34488476 0.05378144 504.58202637 -6.78515625 496.1328125 C-14.07659771 485.74195098 -15.32739873 474.66813847 -14.0625 462.3125 C-11.58350216 450.86819444 -4.9676893 442.54653235 4.5 435.875 C14.82480893 429.50743491 25.45185922 428.09644912 37.25 430.375 C45.45642703 432.40280622 52.53088955 435.97805045 57.54589844 442.89282227 C59.91670812 445.67600659 61.39490057 446.8058562 65.0559082 447.1706543 C66.61652828 447.19637438 68.17813734 447.18306025 69.73828125 447.13671875 C70.57409225 447.13630081 71.40990326 447.13588287 72.27104187 447.13545227 C74.033636 447.12709904 75.79622229 447.10171716 77.55834961 447.06030273 C80.23235426 447.00039533 82.90159454 446.99871534 85.57617188 447.00585938 C87.29690949 446.99044009 89.01762098 446.97166749 90.73828125 446.94921875 C91.9199865 446.94724739 91.9199865 446.94724739 93.12556458 446.94523621 C99.95128905 446.74523037 105.78752933 444.8031984 111.18066406 440.53881836 C115.49021356 435.37579009 118.19961971 430.10368224 120.6875 423.875 C121.06003906 422.98490234 121.43257813 422.09480469 121.81640625 421.17773438 C124.10875434 415.63316806 126.12323671 410.03057548 127.9375 404.3125 C127.14061768 404.95747437 127.14061768 404.95747437 126.32763672 405.61547852 C117.2586633 412.85824041 109.58950727 414.43387681 97.9375 413.3125 C89.70343296 411.62536513 83.37642093 407.7125154 77.9375 401.3125 C72.40580003 392.49883449 70.45240335 383.69261677 71.9375 373.3125 C73.67546297 366.12150319 76.4573586 359.2228605 79.0625 352.3125 C79.80035169 350.30510032 80.53615958 348.29694834 81.27001953 346.28808594 C83.12344442 341.2292656 85.0016804 336.18007588 86.88696289 331.13305664 C88.43571698 326.97485166 89.96109333 322.80821456 91.484375 318.640625 C93.14265917 314.10771645 94.80478954 309.57640669 96.48681641 305.05224609 C99.49774207 296.95359419 102.47386632 288.84439465 105.39041138 280.71118164 C107.00115469 276.22235129 108.62218583 271.73726349 110.24371338 267.25231934 C111.03190788 265.06371853 111.81533265 262.87339337 112.59368896 260.68127441 C113.6853967 257.60838491 114.79406656 254.54209012 115.90625 251.4765625 C116.38368149 250.11185318 116.38368149 250.11185318 116.87075806 248.71957397 C119.97178939 240.26813192 125.06522427 232.0810111 132.9375 227.3125 C143.83336841 222.82596595 152.92685907 221.7887483 163.9375 226.3125 C172.4952438 230.73606805 178.34388479 237.10839172 181.41015625 246.2890625 C183.65069797 254.88610406 183.65069797 254.88610406 181.9375 258.3125 C183.2575 258.6425 184.5775 258.9725 185.9375 259.3125 C192.53030136 211.46152236 179.92744313 162.055836 151.36669922 123.19384766 C147.45086939 118.0391868 143.20440331 113.17622097 138.9375 108.3125 C137.87360083 107.02198554 136.81081667 105.73054951 135.75 104.4375 C132.48882373 100.65896999 128.75331792 97.51494618 124.9375 94.3125 C124.06222656 93.549375 123.18695313 92.78625 122.28515625 92 C83.53657863 58.7126313 33.51488007 43.93522495 -17.09594727 47.72631836 C-57.1484095 51.4376606 -95.46574472 69.03948397 -124.84375 96.3046875 C-126.39563242 97.70903181 -128.00198628 99.05442411 -129.64453125 100.3515625 C-133.26334654 103.28636908 -136.06299682 106.76338025 -139.0625 110.3125 C-139.81660156 111.16714844 -140.57070312 112.02179688 -141.34765625 112.90234375 C-150.63135819 123.62788847 -158.15712911 135.45980262 -164.875 147.9375 C-165.21152588 148.5564917 -165.54805176 149.1754834 -165.89477539 149.81323242 C-168.3185696 154.45188328 -170.27381414 159.23849109 -172.19799805 164.09912109 C-172.61258396 165.14122993 -172.61258396 165.14122993 -173.03554535 166.20439148 C-173.71251247 167.9065717 -174.38768737 169.60946451 -175.0625 171.3125 C-174.10834702 171.30881283 -173.15419403 171.30512566 -172.17112732 171.30132675 C-148.89913108 171.2123248 -125.62715704 171.14670059 -102.35502625 171.10525131 C-91.10055472 171.08467132 -79.84619598 171.05663837 -68.59179688 171.01074219 C-58.7765676 170.97073429 -48.96142005 170.94503407 -39.14611149 170.93614602 C-33.95430947 170.93095482 -28.76274114 170.91884972 -23.5710144 170.88957977 C-18.67248835 170.86218969 -13.77428964 170.85410211 -8.87569427 170.86006927 C-7.08923303 170.85897949 -5.30275948 170.85116742 -3.51636505 170.8356781 C15.59686863 170.67824811 32.5764043 173.70617693 46.8125 187.625 C58.84671014 200.35182655 62.56492274 214.06410921 62.45507812 231.3515625 C62.46051391 232.81020806 62.46764465 234.26884812 62.47631836 235.72747803 C62.49438202 239.64908349 62.48755537 243.57026283 62.47480202 247.49187469 C62.46458543 251.62040753 62.47409149 255.74890694 62.48034668 259.87744141 C62.48759813 266.80703191 62.47810152 273.73645119 62.45898438 280.66601562 C62.4372204 288.6465229 62.44427355 296.62662122 62.46629 304.60711861 C62.48451577 311.4924879 62.48696745 318.377735 62.47653532 325.26312065 C62.47033961 329.3608049 62.46935536 333.45829773 62.48268127 337.55596924 C62.49434447 341.41073743 62.4860262 345.26498489 62.46310425 349.11969757 C62.45787241 350.52361441 62.45923453 351.92757606 62.46815491 353.3314743 C62.55036886 367.5997548 59.29980356 378.75453353 50.9375 390.3125 C49.82375 391.8903125 49.82375 391.8903125 48.6875 393.5 C37.95878628 404.47254812 24.26650237 411.22162653 8.85498047 411.53955078 C7.0881845 411.53924049 5.32136439 411.5283271 3.5546875 411.5078125 C2.61440704 411.5049826 1.67412659 411.50215271 0.70535278 411.49923706 C-2.25906827 411.48815978 -5.22317231 411.46307951 -8.1875 411.4375 C-10.21353726 411.42745407 -12.23957932 411.41833106 -14.265625 411.41015625 C-19.19803635 411.38826144 -24.13021468 411.35381957 -29.0625 411.3125 C-29.04678955 413.06723633 -29.04678955 413.06723633 -29.03076172 414.85742188 C-28.99437493 419.22587994 -28.9715319 423.59432478 -28.95263672 427.96289062 C-28.94262153 429.84833026 -28.92900548 431.73375453 -28.91162109 433.61914062 C-28.88717468 436.33988249 -28.87597184 439.06041777 -28.8671875 441.78125 C-28.85170364 443.03174133 -28.85170364 443.03174133 -28.83590698 444.30749512 C-28.83440857 452.24510275 -29.95722317 458.93090396 -35.0625 465.3125 C-40.13691561 470.27415082 -44.48665204 471.98742291 -51.5 472.625 C-61.4324368 471.75373361 -67.18069862 466.20183568 -74.31396484 459.859375 C-77.17685006 457.32666895 -80.09185838 454.85542586 -83 452.375 C-84.17618302 451.36635373 -85.35196263 450.35723686 -86.52734375 449.34765625 C-90.61845969 445.83469415 -94.71286725 442.32557884 -98.80786133 438.81713867 C-102.34610841 435.78527384 -105.88282497 432.75168388 -109.41113281 429.70825195 C-110.59358717 428.69595011 -111.78307698 427.69180793 -112.97949219 426.69604492 C-115.7714557 424.36231919 -118.25833658 422.09370928 -120.6953125 419.37109375 C-126.89553037 412.86549201 -131.08775638 411.83996654 -139.93066406 411.5222168 C-142.28296385 411.50757526 -144.63586736 411.53156954 -146.98730469 411.59692383 C-155.41352782 411.77716721 -155.41352782 411.77716721 -159.30859375 408.98828125 C-161.0625 406.3125 -161.0625 406.3125 -161.6875 403.3125 C-160.84049662 399.24688378 -159.26217009 397.91515651 -156.0625 395.3125 C-151.61109136 394.36296187 -147.15528459 394.42558476 -142.61767578 394.44091797 C-140.46081671 394.43753655 -138.3152474 394.35987074 -136.16015625 394.27734375 C-127.39866394 394.13068988 -121.93369264 395.70391969 -115.38134766 401.93505859 C-114.61612793 402.71961426 -113.8509082 403.50416992 -113.0625 404.3125 C-111.40342337 405.8208907 -109.7377231 407.32206203 -108.0625 408.8125 C-107.2478125 409.555 -106.433125 410.2975 -105.59375 411.0625 C-102.9740519 413.39112053 -100.2873469 415.60812947 -97.5625 417.8125 C-93.9677235 420.7206338 -90.47989372 423.69791332 -87.0625 426.8125 C-82.87542426 430.62490805 -78.54755933 434.21057436 -74.14453125 437.76953125 C-69.72228586 441.41830406 -65.40962526 445.19002149 -61.10083008 448.97167969 C-60.18466919 449.7726709 -60.18466919 449.7726709 -59.25 450.58984375 C-58.43595703 451.30515259 -58.43595703 451.30515259 -57.60546875 452.03491211 C-54.46068004 454.71172533 -54.46068004 454.71172533 -50.5 455.1875 C-47.97304704 454.55682676 -47.97304704 454.55682676 -46.92611694 452.5748291 C-45.93485528 449.97812217 -45.81107831 448.01694833 -45.80712891 445.24023438 C-45.80016998 444.23238892 -45.79321106 443.22454346 -45.78604126 442.18615723 C-45.78753677 440.56260315 -45.78753677 440.56260315 -45.7890625 438.90625 C-45.7687793 436.61327632 -45.74792863 434.3203076 -45.7265625 432.02734375 C-45.70392597 428.41288051 -45.68747757 424.798613 -45.68164062 421.18408203 C-45.67214082 417.69527853 -45.63839892 414.20735677 -45.6015625 410.71875 C-45.60660797 409.63638062 -45.61165344 408.55401123 -45.61685181 407.43884277 C-45.60358856 406.43099731 -45.59032532 405.42315186 -45.57666016 404.38476562 C-45.57381012 403.49970337 -45.57096008 402.61464111 -45.56802368 401.70275879 C-44.88228465 398.46039092 -43.6946916 397.28383871 -41.0625 395.3125 C-38.65687561 394.82043457 -38.65687561 394.82043457 -35.94946289 394.83007812 C-34.93062515 394.82327026 -33.91178741 394.8164624 -32.86207581 394.80944824 C-31.21525063 394.82642761 -31.21525063 394.82642761 -29.53515625 394.84375 C-27.825308 394.83317566 -27.825308 394.83317566 -26.08091736 394.8223877 C-21.2096694 394.79294751 -16.33882128 394.80942109 -11.4675293 394.82177734 C11.50134556 395.4887485 11.50134556 395.4887485 31.44921875 385.484375 C32.9375 384.3125 32.9375 384.3125 34.9375 384.3125 C35.21722656 383.72984375 35.49695313 383.1471875 35.78515625 382.546875 C37.20566931 379.79252426 38.89737735 377.27519086 40.62109375 374.703125 C45.14579412 366.48616172 45.37801812 359.45241055 45.35742188 350.19238281 C45.36477197 348.77226091 45.37336093 347.35214497 45.38308716 345.93203735 C45.40521703 342.09293144 45.40823802 338.25404073 45.40633965 334.4148798 C45.40621951 331.19957559 45.41480149 327.98431625 45.42311716 324.76902461 C45.44232188 317.17606377 45.44524633 309.58321284 45.43847656 301.99023438 C45.43184317 294.18301274 45.4546783 286.37626445 45.49179029 278.56913877 C45.52258548 271.84440193 45.53383658 265.11981656 45.52995348 258.39501071 C45.52789548 254.38830971 45.53321643 250.38197692 45.55784607 246.37534332 C45.58027302 242.60266133 45.57810517 238.83074282 45.55791855 235.05805588 C45.55293725 233.03268481 45.57241302 231.00729846 45.59292603 228.98202515 C45.4806453 216.62680721 41.88335601 207.30863122 33.25390625 198.4375 C20.9695285 187.16818888 6.24314916 187.87101555 -9.48388672 187.90844727 C-11.65158438 187.90273826 -13.81927903 187.89577195 -15.98696899 187.88764954 C-21.85068347 187.86976137 -27.71424794 187.87087842 -33.57798147 187.87659192 C-38.4833569 187.87969018 -43.38870378 187.8735842 -48.29407513 187.86755317 C-59.8716929 187.85352368 -71.44923686 187.85505603 -83.02685547 187.86645508 C-94.94830861 187.8779337 -106.86953671 187.86386117 -118.79096019 187.8370586 C-129.04779192 187.8148667 -139.30455319 187.80827213 -149.56140721 187.81413502 C-155.67790374 187.81749754 -161.79425606 187.81513631 -167.91073227 187.79788399 C-173.66467213 187.78236144 -179.41827989 187.7864294 -185.17220688 187.80518913 C-187.27598001 187.80886037 -189.37977804 187.80580965 -191.48352814 187.79530334 C-206.17342421 187.72757849 -220.40368899 188.0454453 -232.0625 198.3125 C-239.88996287 206.56012489 -244.16954939 215.76951538 -244.20294189 227.16142273 C-244.20865204 228.33182602 -244.21436218 229.50222931 -244.22024536 230.70809937 C-244.22136322 231.98351593 -244.22248108 233.2589325 -244.22363281 234.57299805 C-244.22826486 235.93680454 -244.23329004 237.30060974 -244.23867798 238.66441345 C-244.25176835 242.36301749 -244.25824057 246.0616034 -244.26268864 249.76022696 C-244.26562533 252.07448108 -244.2697313 254.38873031 -244.27419281 256.70298195 C-244.28786006 263.95383578 -244.29753 271.20467836 -244.3013947 278.45554417 C-244.30587104 286.80659019 -244.32340242 295.15747217 -244.3523953 303.50846833 C-244.3740636 309.97576658 -244.38410175 316.44301886 -244.38543582 322.910353 C-244.38648034 326.76716511 -244.39231232 330.62382287 -244.41025543 334.48059654 C-244.42682508 338.1127085 -244.42884895 341.74455155 -244.42011642 345.376688 C-244.41898811 347.33089796 -244.43263732 349.28509935 -244.4468689 351.23925781 C-244.38920976 363.50277319 -241.56565527 373.98218902 -233.28125 383.3203125 C-225.50551797 390.68176373 -215.90925631 394.40119663 -205.28125 394.453125 C-204.19199219 394.47246094 -203.10273438 394.49179687 -201.98046875 394.51171875 C-199.70200146 394.54557026 -197.42324851 394.563802 -195.14453125 394.56640625 C-185.86589992 394.7750382 -185.86589992 394.7750382 -182.8203125 397.671875 C-181.0625 400.3125 -181.0625 400.3125 -180.4375 403.3125 C-181.08054058 406.39909477 -181.8995916 408.09679818 -184.19384766 410.26953125 C-188.48520631 412.66470818 -193.7946311 411.94045602 -198.5625 411.8125 C-200.32327881 411.78373779 -200.32327881 411.78373779 -202.11962891 411.75439453 C-219.43247403 411.30924146 -233.78153687 406.87521233 -246.296875 394.3515625 C-262.78632206 376.80742591 -261.66809731 354.9311191 -261.56687045 332.44437623 C-261.55284848 328.54809493 -261.55949895 324.65183649 -261.56300354 320.75553894 C-261.56569134 314.22049446 -261.55235097 307.68563515 -261.52905273 301.15063477 C-261.50241851 293.62851804 -261.5007119 286.10670989 -261.5124411 278.58456212 C-261.52327047 271.30057943 -261.5169937 264.01670678 -261.50288582 256.73273277 C-261.49717391 253.65371745 -261.49717034 250.57478395 -261.50195122 247.49576759 C-261.50677172 243.86345024 -261.49641305 240.23146507 -261.47499657 236.59921074 C-261.46690423 234.65406752 -261.47322207 232.70888046 -261.48019409 230.76373291 C-261.33375509 213.17623787 -256.34672022 198.52292661 -243.9453125 185.94921875 C-239.29616791 181.69695236 -234.22016459 178.67185337 -228.44921875 176.1875 C-224.88923719 173.39078781 -224.38451913 170.1412023 -223.25 165.875 C-222.74160897 164.14017772 -222.22708029 162.40714453 -221.70703125 160.67578125 C-221.43971191 159.78455566 -221.17239258 158.89333008 -220.89697266 157.97509766 C-213.97537337 135.88997132 -202.93787076 114.79471323 -189.0625 96.3125 C-188.6102002 95.70615723 -188.15790039 95.09981445 -187.69189453 94.47509766 C-181.29973834 85.96810668 -174.43126937 77.98482321 -167.0625 70.3125 C-166.5763623 69.80444824 -166.09022461 69.29639648 -165.58935547 68.77294922 C-158.82191964 61.74107435 -151.83178883 55.24576286 -144.0625 49.3125 C-143.12374023 48.59175293 -143.12374023 48.59175293 -142.16601562 47.85644531 C-100.93238345 16.43195356 -51.80508692 -0.20669483 0 0 Z M-135.0625 63.3125 C-135.62678711 63.77382324 -136.19107422 64.23514648 -136.77246094 64.71044922 C-170.48588917 92.47278987 -196.11220372 129.08811981 -208.0625 171.3125 C-202.7825 171.3125 -197.5025 171.3125 -192.0625 171.3125 C-191.62421875 170.06339844 -191.1859375 168.81429687 -190.734375 167.52734375 C-178.85521231 134.55529886 -159.52330602 102.70862268 -132.0625 80.3125 C-131.03231373 79.43517564 -130.00238947 78.55754357 -128.97265625 77.6796875 C-99.15398846 52.65151877 -61.74856517 36.74850214 -23.0625 32.3125 C-22.11632812 32.20164063 -21.17015625 32.09078125 -20.1953125 31.9765625 C31.65741076 26.99331377 84.91827417 41.27497839 125.90234375 73.76171875 C130.1190901 77.30552231 134.17381925 80.99398558 138.18359375 84.76953125 C140.12272465 86.56013297 142.05335766 88.25636549 144.08984375 89.92578125 C147.84430364 93.07252336 150.81534845 96.55080157 153.9375 100.3125 C154.36305176 100.81507324 154.78860352 101.31764648 155.22705078 101.83544922 C185.83843642 138.09783953 203.47079146 184.03438959 203.19824219 231.59423828 C203.18750338 233.81180125 203.19822954 236.02855466 203.2109375 238.24609375 C203.21813407 246.9376302 202.60934754 255.33581173 201.36621094 263.93945312 C200.82073166 268.12287263 200.82073166 268.12287263 200.9375 272.3125 C202.92948062 274.17701757 204.70705072 275.61542791 206.9375 277.125 C207.50984375 277.53169922 208.0821875 277.93839844 208.671875 278.35742188 C210.08338621 279.35724232 211.50915041 280.33688622 212.9375 281.3125 C214.42883802 278.57806058 215.27930966 276.22650717 215.75390625 273.15234375 C215.94049805 271.9602832 215.94049805 271.9602832 216.13085938 270.74414062 C216.25267578 269.92107422 216.37449219 269.09800781 216.5 268.25 C216.68852539 267.05600586 216.68852539 267.05600586 216.88085938 265.83789062 C225.36938818 210.41801933 211.45126359 152.59441011 178.59594727 107.23413086 C166.30729534 90.51194475 152.34894333 75.07229225 135.9375 62.3125 C135.39383789 61.88710938 134.85017578 61.46171875 134.29003906 61.0234375 C106.03726309 39.07579552 72.25140318 24.15174038 36.9375 18.3125 C35.70902344 18.10109375 34.48054687 17.8896875 33.21484375 17.671875 C-26.0057514 8.65023918 -88.71606201 25.31287992 -135.0625 63.3125 Z M137.01977539 245.42285156 C134.62384926 248.74776442 133.20145162 252.13331286 131.796875 255.9453125 C131.50310974 256.72149933 131.20934448 257.49768616 130.90667725 258.2973938 C129.90370738 260.96436865 128.91850115 263.63736843 127.9375 266.3125 C127.57793213 267.29150269 127.21836426 268.27050537 126.84790039 269.2791748 C123.93261607 277.23835876 121.05776538 285.21199295 118.1875 293.1875 C116.33630748 298.33003058 114.4836246 303.47202121 112.62890625 308.61328125 C112.39491434 309.26218008 112.16092243 309.91107891 111.91983986 310.57964134 C108.45108938 320.19366829 104.91575686 329.7807809 101.33984375 339.35546875 C100.02349585 342.89586279 98.70803108 346.43658396 97.3927002 349.97735596 C96.55327466 352.2271538 95.70869628 354.47503633 94.85876465 356.72088623 C93.67799529 359.8417921 92.51508835 362.96884232 91.35546875 366.09765625 C90.83206154 367.45796211 90.83206154 367.45796211 90.29808044 368.8457489 C88.10954661 374.81891771 86.38161434 381.06501897 88.65666199 387.27577209 C91.27000377 392.26645147 94.60579553 395.53526518 99.9375 397.3125 C106.49444743 398.08764301 110.59334898 397.18962917 115.9375 393.3125 C120.64731802 388.63921076 122.26361128 382.60628653 124.40234375 376.484375 C125.05609716 374.6534544 125.70985517 372.82253543 126.36379147 370.99168015 C127.06079912 369.03453886 127.75304649 367.07577357 128.44390869 365.11645508 C130.62571197 358.92963476 132.83583972 352.75290991 135.0430069 346.57510376 C135.80584226 344.43895277 136.56747929 342.302377 137.32904053 340.16577148 C140.79992528 330.43751168 144.3342551 320.73411045 147.91796875 311.046875 C148.1578974 310.398041 148.39782604 309.749207 148.64502525 309.08071136 C150.73010061 303.44377403 152.81978125 297.80855978 154.91574097 292.17565918 C165.07991765 270.60620933 165.07991765 270.60620933 164.9375 248.3125 C162.13476281 243.86677894 159.0318593 241.1364769 153.8984375 239.76953125 C147.00911204 238.57396102 141.7584525 240.2081953 137.01977539 245.42285156 Z M146.9375 401.3125 C146.49470703 402.46661377 146.05191406 403.62072754 145.59570312 404.80981445 C143.92717944 409.14569954 142.23717821 413.47295644 140.54101562 417.7980957 C139.81390024 419.66076585 139.0924017 421.52563984 138.37695312 423.39282227 C132.59724667 438.4596129 127.37120003 451.9268022 111.9375 459.3125 C111.37087646 459.58553955 110.80425293 459.8585791 110.22045898 460.13989258 C102.18996577 463.41810465 93.40472059 462.88087701 84.875 463 C83.22979136 463.03322508 81.58460783 463.06771941 79.93945312 463.10351562 C75.93878354 463.19018 71.93893873 463.25074283 67.9375 463.3125 C67.9375 468.2625 67.9375 473.2125 67.9375 478.3125 C72.66671758 478.40533088 77.39266052 478.48464699 82.12207031 478.53222656 C83.72406844 478.55209929 85.32599645 478.5792074 86.92773438 478.61425781 C105.81374438 479.01659136 120.55584793 474.9819025 134.62890625 461.69921875 C145.70347421 450.24987692 162.9375 418.81650272 162.9375 402.3125 C157.6575 401.9825 152.3775 401.6525 146.9375 401.3125 Z M7.375 454.34375 C2.1727223 461.46860859 0.63554208 468.55283575 1.9375 477.3125 C4.6472342 485.83737174 9.57257205 490.69354323 17.0625 495.1875 C23.00287287 497.42687307 30.34395123 497.38194011 36.37890625 495.5859375 C43.63082235 492.2007926 48.32003436 486.31090469 51.9375 479.3125 C54.41880974 471.24434192 52.67534092 464.62833995 48.9375 457.3125 C44.84797189 451.119786 39.46055021 447.46333526 32.296875 445.640625 C22.72654538 444.27343505 13.84002636 447.00843163 7.375 454.34375 Z " fill="#000000" transform="translate(261.0625,-0.31250000000000006)"/>
<path d="M0 0 C1.32140084 -0.00657338 1.32140084 -0.00657338 2.66949666 -0.01327956 C5.63897033 -0.02669784 8.60841431 -0.03285316 11.57791138 -0.03897095 C13.69976944 -0.04686939 15.82162616 -0.05513818 17.94348145 -0.06375122 C24.92594108 -0.08999645 31.9084068 -0.10527923 38.89089966 -0.11953735 C41.29110849 -0.1248956 43.69131728 -0.1302731 46.09152603 -0.13566971 C56.07165697 -0.1573002 66.05178628 -0.17603906 76.03193474 -0.1872921 C90.35445746 -0.20354559 104.67670948 -0.23675558 118.99913013 -0.29369295 C129.05944704 -0.33232943 139.11969135 -0.3519172 149.18008053 -0.35721266 C155.19421092 -0.36087414 161.20805276 -0.37298026 167.22210312 -0.4053154 C172.87742169 -0.43528599 178.53227547 -0.4417472 184.1876564 -0.42993164 C186.26619444 -0.42971 188.34475336 -0.43808963 190.42321777 -0.45558548 C193.25553076 -0.4781342 196.0861378 -0.47004901 198.91845703 -0.45410156 C200.15960087 -0.47492469 200.15960087 -0.47492469 201.42581832 -0.49616849 C205.35985251 -0.44138262 207.17511587 -0.22976176 210.1006031 2.500494 C211.90671152 5.72633539 212.12907268 7.5089795 211.58621216 11.15390015 C209.80636811 14.28981585 209.06313009 14.9949275 205.58621216 16.15390015 C202.77367488 16.25643543 199.98564306 16.3017062 197.17279053 16.30107117 C196.30395843 16.30474786 195.43512633 16.30842454 194.53996599 16.31221265 C191.61738717 16.32325985 188.6948439 16.32709505 185.77224731 16.3309021 C183.68142076 16.33716584 181.59059533 16.34381256 179.49977112 16.35081482 C173.81178179 16.36822987 168.12380087 16.37877743 162.43579149 16.38702035 C158.88436137 16.39216823 155.33293386 16.39824398 151.78150558 16.40453148 C140.67617336 16.42358285 129.5708478 16.4378155 118.46550238 16.44614345 C105.63402963 16.45592413 92.802729 16.48226563 79.97131693 16.52264434 C70.06043079 16.55276576 60.14959412 16.56760845 50.23866308 16.57092446 C44.31566383 16.57327899 38.39284849 16.5822922 32.46989822 16.60738564 C26.89996809 16.63060255 21.33034379 16.63492528 15.76037788 16.62462425 C13.71451744 16.62412727 11.66864226 16.63049536 9.62282753 16.6441803 C6.83271551 16.66180203 4.04371273 16.65484115 1.25360107 16.64164734 C0.44143965 16.65261658 -0.37072177 16.66358583 -1.20749414 16.67488748 C-4.97239934 16.63181641 -7.1789081 16.30227987 -10.39299965 14.27185345 C-12.79009704 11.75949695 -13.41378784 10.62368848 -13.41378784 7.15390015 C-10.38736419 -0.34010127 -7.4880548 0.00448044 0 0 Z " fill="#000000" transform="translate(62.413787841796875,255.84609985351563)"/>
<path d="M0 0 C0.86166828 -0.00467997 1.72333655 -0.00935994 2.61111599 -0.01418173 C5.49766033 -0.02614516 8.38373109 -0.01666916 11.27027893 -0.00723267 C13.34007545 -0.01129779 15.4098698 -0.01663934 17.47966003 -0.02316284 C23.10154238 -0.03685003 28.72325972 -0.03153171 34.34514499 -0.02202559 C40.22669342 -0.01443528 46.10822763 -0.02147295 51.98977661 -0.02618408 C61.8682967 -0.03164389 71.74674952 -0.02444453 81.6252594 -0.01016235 C93.04682383 0.00616004 104.46822757 0.00087949 115.88978809 -0.01564157 C125.69373718 -0.02925538 135.49763788 -0.03117646 145.30159336 -0.02332556 C151.15803318 -0.0186479 157.01439747 -0.01802671 162.87083244 -0.02793503 C168.37757894 -0.03660066 173.88411831 -0.03058997 179.39084244 -0.01325226 C181.41208235 -0.00928509 183.43333969 -0.01042538 185.45457268 -0.01704025 C188.21344012 -0.02523674 190.97164362 -0.01495691 193.73046875 0 C194.53057119 -0.00669217 195.33067364 -0.01338433 196.15502161 -0.02027929 C200.95941296 0.03024897 204.2610508 0.73163917 208.4287262 3.38095093 C209.97459495 6.47268844 209.72232141 8.97524645 209.4287262 12.38095093 C207.9500885 14.57618809 207.9500885 14.57618809 205.4287262 16.38095093 C202.42121331 16.77153991 199.78122685 16.91711768 196.77442932 16.88215637 C195.4504652 16.89045797 195.4504652 16.89045797 194.09975433 16.89892727 C191.13621026 16.9125624 188.1735042 16.89754899 185.2099762 16.88265991 C183.08782086 16.88644204 180.96566798 16.89194121 178.84352112 16.89903259 C173.07497377 16.91301821 167.30672365 16.90179551 161.53819275 16.88532138 C155.50756077 16.87149282 149.47694643 16.87792845 143.44630432 16.88145447 C133.31800026 16.88415832 123.18981459 16.87066584 113.0615387 16.84750366 C101.34400343 16.82089289 89.62666615 16.81914621 77.90911102 16.83089203 C66.64731304 16.84166309 55.38558683 16.835488 44.12379456 16.82133675 C39.32641406 16.81557113 34.52908599 16.81566416 29.73170471 16.82040215 C24.08461528 16.82516681 18.43774325 16.81509129 12.79069519 16.79344749 C10.71540561 16.78787251 8.64009517 16.78742082 6.56480408 16.79240036 C3.73730071 16.79833504 0.91046609 16.78588292 -1.91697693 16.76863098 C-2.74304192 16.77464103 -3.5691069 16.78065107 -4.42020416 16.78684324 C-7.72773918 16.7500112 -10.13264 16.62367783 -13.05747986 15.00515842 C-15.10710674 12.80603525 -15.42884949 11.37186143 -15.5712738 8.38095093 C-14.81546097 5.20653704 -14.086773 3.7894384 -11.52104092 1.75632286 C-7.66044058 -0.04373834 -4.17328786 -0.0348089 0 0 Z " fill="#000000" transform="translate(64.57127380371094,291.6190490722656)"/>
<path d="M0 0 C0.73815842 -0.00523668 1.47631685 -0.01047336 2.23684371 -0.01586872 C4.71724584 -0.0309042 7.19744233 -0.03157464 9.67788696 -0.03224182 C11.45344899 -0.03986091 13.22900771 -0.04828797 15.00456238 -0.0574646 C19.83308518 -0.07944078 24.66154465 -0.08821265 29.49011183 -0.09329104 C32.50551706 -0.09693083 35.52090559 -0.10316889 38.53630447 -0.11029243 C49.05241884 -0.13479743 59.56848379 -0.14784117 70.08462524 -0.15138245 C79.89302334 -0.1550189 89.70110873 -0.18491949 99.50941122 -0.22678703 C107.92562702 -0.2614552 116.34173902 -0.27693028 124.75802577 -0.27762848 C129.78681639 -0.27842246 134.81528862 -0.28721655 139.84400558 -0.31562614 C144.57355281 -0.34174744 149.30251633 -0.34404535 154.03210258 -0.3279705 C155.76835462 -0.32615129 157.50463975 -0.33288929 159.24081993 -0.34878922 C161.61086717 -0.36917153 163.97885696 -0.35874671 166.34887695 -0.34057617 C167.03652803 -0.35377614 167.7241791 -0.36697611 168.43266809 -0.38057607 C172.21472719 -0.31431219 173.73971436 0.22458724 176.72814369 2.62507534 C178.80142212 5.27415466 178.80142212 5.27415466 179.42642212 8.27415466 C178.57717972 12.3505182 177.02609746 13.68142486 173.80142212 16.27415466 C170.38622952 16.89498043 170.38622952 16.89498043 166.39356995 16.8888855 C165.65708066 16.89456875 164.92059137 16.90025201 164.16178423 16.90610749 C161.69855602 16.91900732 159.23697227 16.89622574 156.77383423 16.8735199 C155.00620682 16.87538404 153.23858057 16.87942087 151.47096252 16.88546753 C146.67339706 16.89544712 141.87642184 16.87426437 137.07894206 16.84698749 C132.05997903 16.82316709 127.04102791 16.82610251 122.02201843 16.82568359 C113.59446207 16.82105485 105.16713157 16.7974075 96.73965454 16.76121521 C86.99263924 16.71946783 77.24582731 16.70189958 67.49872774 16.69859546 C57.12579416 16.69499726 46.75293388 16.67612474 36.38003087 16.65147519 C33.38894766 16.64524358 30.39787003 16.64160915 27.40678215 16.63844109 C22.70933454 16.63254438 18.01203254 16.61624204 13.31464577 16.59183693 C11.58928426 16.58439072 9.86390442 16.5803246 8.13852692 16.57985687 C5.78629755 16.5786009 3.43445326 16.56506947 1.08229065 16.54830933 C-0.8935103 16.54133357 -0.8935103 16.54133357 -2.90922642 16.53421688 C-5.99105254 16.290562 -7.72130543 16.08157901 -10.19857788 14.27415466 C-11.71000776 10.63298269 -12.45655775 8.32952685 -11.51107788 4.46165466 C-8.65944851 -0.29106095 -4.97082625 -0.01734539 0 0 Z " fill="#000000" transform="translate(61.198577880859375,328.72584533691406)"/>
</svg>
