<?xml version="1.0" encoding="UTF-8"?>
<svg version="1.1" xmlns="http://www.w3.org/2000/svg" width="448" height="448">
<path d="M0 0 C4.2491153 3.40398739 8.14728558 7.15951642 12 11 C12.60585938 11.56203125 13.21171875 12.1240625 13.8359375 12.703125 C15 14 15 14 15 16 C15.82757813 15.83242188 16.65515625 15.66484375 17.5078125 15.4921875 C34.52541078 13.09373405 52.11332354 18.13730365 66 28 C69.52641417 30.82513863 72.80298076 33.8087308 76 37 C76.55171875 37.54011719 77.1034375 38.08023438 77.671875 38.63671875 C90.61396717 52.44857518 95.09453811 70.5461619 95 89 C94.71984658 91.00813973 94.40659173 93.01359766 94 95 C94.57234375 95.25136719 95.1446875 95.50273438 95.734375 95.76171875 C108.99515727 103.00942216 115.94437336 119.21435065 120 133 C124.31518154 151.83324052 120.87996716 171.58650617 111 188 C107.35593187 193.26953421 103.73110708 197.5438623 98.5 201.25 C95.81757425 203.48969529 95.07559637 204.43564688 94.60546875 207.9453125 C94.66211909 210.31383612 94.76255849 212.68157369 94.8984375 215.046875 C95.30495916 230.86994865 89.74961607 245.67949125 80 258 C79.35417969 258.83402344 78.70835937 259.66804688 78.04296875 260.52734375 C67.69780915 272.98376041 51.99831891 281.55271439 36 284 C33.36067857 284.12480066 30.73892597 284.13268973 28.09692383 284.12329102 C19.92318142 283.91016355 19.92318142 283.91016355 12.43359375 286.55859375 C10.76753718 288.61808054 9.41691894 290.76398546 8 293 C-4.83926925 305.71882582 -22.27146681 311.20515171 -40 311.375 C-59.15931883 311.17377284 -76.20138236 304.45191871 -90 291 C-90.71965942 289.98661057 -91.43931885 288.97322113 -92.18078613 287.92912292 C-94.352873 285.32229345 -95.01717444 284.99501092 -98.49719238 283.98408508 C-106.67059589 283.72805724 -111.85023668 284.50465452 -118.01367188 290.11791992 C-120.407467 292.42089996 -122.68930635 294.81501098 -124.96875 297.23046875 C-126.22391705 298.50283924 -127.48232767 299.77201726 -128.74377441 301.03816223 C-131.37044148 303.69075822 -133.96901174 306.36705716 -136.54785156 309.06616211 C-139.82476262 312.49538145 -143.14512187 315.87785785 -146.48516083 319.24550915 C-149.70427317 322.49549417 -152.89954106 325.768537 -156.09375 329.04296875 C-156.69041977 329.65055716 -157.28708954 330.25814556 -157.90184021 330.88414574 C-171.76291963 345.0667926 -180.49730137 360.09135045 -185.4375 379.4375 C-188.94479167 392.48095725 -193.2332137 402.57192771 -202 413 C-202.61617188 413.81726563 -203.23234375 414.63453125 -203.8671875 415.4765625 C-213.69200819 427.1008009 -230.04702757 435.00875165 -245 437 C-266.63707062 438.76613679 -284.34812277 435.30297867 -301.8125 421.6875 C-314.84961553 410.42645528 -324.06420056 394.06393276 -327 377 C-328.39471805 354.66549236 -325.35583103 335.74295851 -310.25317383 318.48608398 C-297.60566857 304.61690816 -282.32483666 298.29289148 -264.3125 294.15234375 C-251.97129456 291.18274119 -241.89188078 286.71917416 -232.52514648 278.06152344 C-231.73878374 277.33509408 -231.73878374 277.33509408 -230.93653488 276.59398937 C-222.2006693 268.50485487 -213.58588008 260.29267484 -205.06570053 251.97682667 C-202.10841469 249.09213999 -199.13748779 246.22511186 -196.13037109 243.39233398 C-193.18223118 240.61413108 -190.27610859 237.79760501 -187.39402008 234.95099449 C-186.30264998 233.88637646 -185.19756698 232.83560618 -184.07820892 231.80045509 C-178.64706153 226.76105802 -174.5053439 222.29334408 -174.10818863 214.62297344 C-174.03835508 208.34033327 -174.03835508 208.34033327 -176.63641357 202.75227356 C-178.45551481 201.18545953 -178.45551481 201.18545953 -180.640625 199.75 C-192.41229248 191.01869697 -198.87090457 174.0299503 -201 160 C-203.10707066 138.49457142 -197.8526916 120.25064153 -184.1875 103.31640625 C-182 101 -182 101 -180.21557617 99.73168945 C-176.37066893 96.96467756 -176.37066893 96.96467756 -174.40869141 92.7956543 C-174.22787732 90.19820037 -174.237117 87.66497489 -174.3125 85.0625 C-174.08038117 65.1828116 -167.45736911 48.03150909 -153.265625 33.9453125 C-141.10604686 22.60176409 -125.58041494 16.19551455 -109 15 C-106.54105127 15.11224501 -104.08265517 15.23730896 -101.625 15.375 C-96.94690623 15.52509887 -96.94690623 15.52509887 -92.9140625 13.5078125 C-91.21280035 11.50556907 -91.21280035 11.50556907 -89.67578125 9.28515625 C-82.28950203 -0.78704268 -67.76675217 -7.97417067 -55.71484375 -10.5625 C-35.89689958 -12.8964745 -16.92000266 -11.46870069 0 0 Z M-78.875 22.5625 C-81.9216046 25.54010485 -83.64635493 27.94618923 -85 32 C-90.44812017 32.84539796 -95.19682336 32.95068537 -100.6875 32.375 C-113.81174764 31.33182672 -127.10991299 35.06052684 -137.58447266 43.23681641 C-144.08957174 48.82775273 -149.37075557 55.22804891 -153 63 C-153.61681641 64.28777344 -153.61681641 64.28777344 -154.24609375 65.6015625 C-158.45358426 76.40418518 -157.3028214 88.08898279 -156.94995117 99.47900391 C-157 102 -157 102 -158 105 C-158.73347656 105.28875 -159.46695313 105.5775 -160.22265625 105.875 C-168.85666057 109.3723182 -176.28980087 119.7325788 -180 128 C-186.11450027 143.58335022 -185.57581336 158.12643092 -178.9375 173.453125 C-174.53893854 182.18915679 -167.56009118 189.36374729 -159.53125 194.84375 C-158 196 -158 196 -157 198 C-156.97431686 199.78516144 -157.01088399 201.57138925 -157.078125 203.35546875 C-157.62024744 223.29467311 -155.7500823 237.30427752 -141.71875 252.46484375 C-135.61456032 258.42039245 -128.954592 262.01580497 -121 265 C-119.47826172 265.58007812 -119.47826172 265.58007812 -117.92578125 266.171875 C-111.36446683 267.97598728 -104.05908428 266.95147384 -97.33984375 266.65820312 C-88.73657041 266.46603379 -88.73657041 266.46603379 -84.9609375 269.203125 C-84.31382812 270.12609375 -83.66671875 271.0490625 -83 272 C-82.29359375 272.81339844 -81.5871875 273.62679688 -80.859375 274.46484375 C-80.16328125 275.28082031 -79.4671875 276.09679687 -78.75 276.9375 C-69.93794335 286.72222189 -57.70883467 293.45243015 -44.3984375 294.203125 C-28.1542621 294.5194653 -15.2900918 290.61095774 -3.26171875 279.28125 C-0.79024039 276.788429 1.53833194 274.23621067 3.74609375 271.5078125 C4.15988281 271.01023437 4.57367188 270.51265625 5 270 C5.40694092 269.47704346 5.81388184 268.95408691 6.2331543 268.4152832 C8.72350131 266.42045915 10.36728668 266.71651354 13.5234375 266.84765625 C14.62099365 266.87851318 15.7185498 266.90937012 16.84936523 266.94116211 C18.59455444 267.00122437 18.59455444 267.00122437 20.375 267.0625 C37.61648754 267.33628631 49.96181568 263.83021673 62.8125 251.6875 C73.30521078 240.59520575 77.94647298 227.16598771 78 212 C77.80156605 208.57795036 77.52691062 205.1848942 77.15625 201.77734375 C77.00785833 199.13968186 76.9273177 197.40817177 78 195 C79.8203125 193.94921875 79.8203125 193.94921875 82 193 C93.10348992 184.48133061 100.84382624 173.82635753 104 160 C105.643077 143.2061393 102.6386433 129.44204918 92.375 115.84765625 C88.66011203 111.36743256 84.51722676 107.8684873 79.8203125 104.4453125 C78 103 78 103 77 101 C77.10268317 98.89185162 77.2129752 96.78365332 77.37133789 94.67895508 C78.67296534 77.28901282 75.53804532 62.65176713 64.1875 48.9375 C53.72988937 38.19281771 39.86157486 32.51721785 25.0625 31.8125 C22.6754288 31.85688769 20.388618 32.07602263 18.015625 32.37109375 C9.72066782 33.35232649 9.72066782 33.35232649 6.1875 31.625 C4.93225547 30.11870657 3.70046886 28.5904534 2.54296875 27.0078125 C-6.17456529 15.2074971 -18.07346337 7.96283126 -32.4921875 5.58984375 C-50.82789949 3.27794963 -65.90044313 10.12425231 -78.875 22.5625 Z M-171.8997345 242.79966736 C-172.73179916 243.64300125 -173.56386383 244.48633514 -174.42114258 245.35522461 C-174.87993805 245.81869293 -175.33873352 246.28216125 -175.81143188 246.75967407 C-176.81316072 247.7719416 -177.81381663 248.78527171 -178.81354713 249.79951286 C-180.40590532 251.41387499 -182.0021875 253.02425395 -183.59977722 254.63343811 C-188.14426084 259.21149405 -192.68505215 263.79314787 -197.21459961 268.38598633 C-199.98422013 271.19372783 -202.76149917 273.99370705 -205.54349327 276.78918648 C-206.59425653 277.84790364 -207.64225997 278.90936852 -208.68720436 279.97382927 C-224.80622216 296.38800736 -241.44740261 306.16234841 -263.82568359 311.47949219 C-280.4809783 315.46658946 -293.85332599 323.11237171 -303.375 337.8125 C-311.13225482 351.85466949 -312.48849345 366.73352369 -308.55517578 382.09863281 C-304.74825607 395.13657947 -295.30380756 405.74780268 -284 413 C-270.29643697 420.37130143 -255.03442062 422.69948752 -239.9375 418.3125 C-225.31010438 413.03343993 -213.56348906 403.36828432 -206.5 389.375 C-204.05361311 383.76869672 -202.55547663 377.96137636 -201 372.0625 C-194.71194265 348.22540688 -182.69361233 331.30660913 -165.27734375 314.08203125 C-164.28085391 313.08928509 -163.28481471 312.09608642 -162.28919983 311.10246277 C-159.70448512 308.5252781 -157.11381778 305.95416389 -154.52172852 303.38439941 C-151.86297371 300.74633611 -149.21007918 298.10239295 -146.55664062 295.45898438 C-141.37671254 290.30031787 -136.1904621 285.14806979 -131 280 C-134.10745603 277.61834892 -137.25499062 275.70150189 -140.6875 273.8125 C-153.99595652 266.04385002 -162.70213517 254.96483071 -169 241 C-170.31514347 240.88537861 -170.31514347 240.88537861 -171.8997345 242.79966736 Z " fill="#000000" transform="translate(327,11)"/>
<path d="M0 0 C20.32837106 20.00207297 31.12525089 44.41703981 31.45654297 73.10693359 C31.2293441 95.7543103 23.48845877 118.3016714 8.43359375 135.39453125 C7.78132812 136.18859375 7.1290625 136.98265625 6.45703125 137.80078125 C-9.37760299 156.45685941 -31.52725247 167.09933111 -55.56640625 170.39453125 C-82.69467135 172.50933147 -109.82564442 166.28277123 -130.953125 148.37109375 C-132.56956949 146.76516842 -134.0787706 145.11893774 -135.56640625 143.39453125 C-136.39140625 142.59015625 -137.21640625 141.78578125 -138.06640625 140.95703125 C-138.89140625 140.11140625 -139.71640625 139.26578125 -140.56640625 138.39453125 C-141.076875 137.88019531 -141.58734375 137.36585938 -142.11328125 136.8359375 C-160.24703869 117.49603564 -166.62061179 91.61980059 -165.97265625 65.76171875 C-164.99238761 45.46403129 -157.5261626 26.04497987 -144.56640625 10.39453125 C-143.87933594 9.55664062 -143.19226563 8.71875 -142.484375 7.85546875 C-127.40618224 -9.69500426 -105.87325711 -22.85645557 -82.56640625 -25.60546875 C-81.26509766 -25.78529297 -81.26509766 -25.78529297 -79.9375 -25.96875 C-50.49490407 -29.29356015 -21.65959588 -20.34269245 0 0 Z M-121.56640625 11.39453125 C-122.40945312 12.14476563 -123.2525 12.895 -124.12109375 13.66796875 C-130.67307819 19.82165627 -135.2791812 26.520232 -139.56640625 34.39453125 C-140.04980469 35.27753906 -140.53320312 36.16054687 -141.03125 37.0703125 C-150.23142975 55.49863607 -151.55527717 77.78858286 -145.29833984 97.34326172 C-137.88781678 118.11151214 -123.46263798 135.50694405 -103.66015625 145.41796875 C-84.71257556 154.37672856 -62.66259726 156.97835712 -42.55957031 150.13085938 C-31.76457594 146.14289967 -22.0374031 141.30861135 -13.56640625 133.39453125 C-12.73882812 132.6571875 -11.91125 131.91984375 -11.05859375 131.16015625 C4.68371204 116.42882423 13.21475956 96.35745415 14.4296875 74.90234375 C14.45518616 52.00454889 6.26149383 31.05151181 -9.56640625 14.39453125 C-25.37201993 -0.88726527 -45.07437644 -8.86409202 -67.03125 -9.69921875 C-87.34007502 -8.94819903 -106.38702973 -2.38213061 -121.56640625 11.39453125 Z " fill="#000000" transform="translate(354.56640625,88.60546875)"/>
<path d="M0 0 C5.25270679 3.84037678 9.71819611 9.06525446 11.12109375 15.55078125 C12.11204671 24.57946379 11.5816991 32.08199359 6.12109375 39.55078125 C1.3589522 44.8784978 -3.97355643 48.16919701 -11.1171875 48.8671875 C-19.8634714 49.15841715 -26.53812683 48.51540994 -33.1328125 42.4921875 C-39.99763056 35.20983132 -41.42132491 29.01721203 -41.25390625 19.09765625 C-40.51794479 12.1366874 -37.6248945 6.84123654 -32.50390625 2.11328125 C-22.84679172 -5.15529322 -10.64648407 -6.20607856 0 0 Z M-23.87890625 18.55078125 C-25.29892504 22.01207705 -25.00833247 23.22074439 -23.62890625 26.73828125 C-22.02079743 29.75476004 -22.02079743 29.75476004 -18.87890625 31.55078125 C-14.01308691 32.10014795 -11.98126185 32.28568498 -7.87890625 29.55078125 C-5.65965539 26.22190496 -5.11999692 24.41141617 -5.40234375 20.48828125 C-6.27613784 16.93580693 -7.89507795 15.54000011 -10.87890625 13.55078125 C-16.79233035 12.09626968 -20.24217276 13.59159922 -23.87890625 18.55078125 Z " fill="#000000" transform="translate(85.87890625,354.44921875)"/>
<path d="M0 0 C3.97107254 2.36574534 5.82802974 4.52520447 7 9 C7.50522392 12.95758736 7.18992188 14.65407087 5.25 18.1875 C0.82627674 23.71715408 0.82627674 23.71715408 -3.04296875 24.31640625 C-8.50197667 24.59987232 -11.77262317 23.71184307 -16 20 C-18.54411038 15.80660428 -18.82122965 11.78635867 -18 7 C-13.91232425 -0.70307023 -7.873475 -1.9402492 0 0 Z " fill="#000000" transform="translate(275,167)"/>
<path d="M0 0 C4.10250564 3.00850414 5.94027437 6.04971825 6.91015625 10.9453125 C7.11737626 15.68434399 4.88577219 18.95317833 1.9375 22.4375 C-2.3697729 24.72860261 -6.2264705 24.90742813 -11 24 C-14.11709136 22.30375149 -16.38929088 20.22141825 -18 17 C-18.61190752 12.139706 -18.98800488 7.53094221 -15.875 3.5 C-10.77922981 -0.93110451 -6.53492624 -1.78225261 0 0 Z " fill="#000000" transform="translate(326,157)"/>
<path d="M0 0 C3.39070316 1.66089321 5.41126047 4.11689071 7.5 7.25 C8.27157301 11.49365158 7.61367511 15.01623957 6 19 C3.24490664 22.37498937 1.81548001 23.64338786 -2.40625 24.47265625 C-6.86152114 24.73433633 -10.02803873 24.48663611 -13.5625 21.625 C-17.3057723 17.59378368 -17.39037018 14.90519941 -17.359375 9.55078125 C-16.78039966 5.44131496 -15.00085071 3.78650423 -12 1 C-8.26836358 -0.86581821 -4.06325499 -0.55464677 0 0 Z " fill="#000000" transform="translate(284,116)"/>
</svg>
