<?xml version="1.0" encoding="UTF-8"?>
<svg version="1.1" xmlns="http://www.w3.org/2000/svg" width="512" height="479">
<path d="M0 0 C1.60608149 -0.00269899 3.21216137 -0.00658478 4.8182373 -0.01159668 C8.17374325 -0.01747268 11.52882139 -0.00899068 14.88427734 0.00976562 C19.1680787 0.03255451 23.45087739 0.01942113 27.73464203 -0.00452423 C31.04798833 -0.01903401 34.36110006 -0.01435266 37.67445374 -0.00401306 C39.25318015 -0.00136004 40.83192842 -0.00456496 42.41062927 -0.01393127 C57.70761218 -0.08478793 57.70761218 -0.08478793 64.53125 4.53125 C66.37109375 6.4609375 66.37109375 6.4609375 67.46875 8.40625 C67.84902344 9.04304687 68.22929688 9.67984375 68.62109375 10.3359375 C70.97438047 16.01210547 70.81545734 22.34768202 71.09375 28.40625 C71.13693359 29.28539062 71.18011719 30.16453125 71.22460938 31.0703125 C71.32994339 33.22380797 71.43102649 35.37751064 71.53125 37.53125 C72.83835937 37.67820312 74.14546875 37.82515625 75.4921875 37.9765625 C93.15217407 40.12478097 108.34360153 44.88277066 124.02490234 53.20166016 C128.83556674 55.75366467 133.66529124 58.26925911 138.49490356 60.78515625 C140.22904039 61.69146382 141.95919271 62.60538267 143.68920898 63.51953125 C161.66115727 72.93221551 177.56352418 75.48485686 197.49751663 77.16314697 C200.45111343 77.41200475 203.40422467 77.66606449 206.35726929 77.92138672 C213.68408822 78.55392139 221.01156395 79.17868663 228.33917236 79.80200195 C234.55626136 80.33097357 240.77299758 80.86377435 246.98929977 81.4019165 C249.87802707 81.6504608 252.76718709 81.89343813 255.65640259 82.13623047 C291.05064931 85.1631103 291.05064931 85.1631103 304.71875 99.71875 C311.93925441 108.68907024 315.59983245 119.10517739 315.53125 130.53125 C333.2085377 132.55902702 342.59968933 128.28203794 356.59375 117.84375 C358.42991227 116.53127444 360.27009749 115.22441103 362.11401367 113.92285156 C364.98789576 111.89209781 367.85809855 109.85736468 370.71565247 107.80368042 C380.45420557 100.80490726 390.44296723 94.2100867 400.48165894 87.65219116 C403.27090702 85.82886726 406.05534193 83.99844074 408.83813477 82.1652832 C412.98510825 79.43412576 417.13754001 76.71149259 421.29418945 73.99508667 C423.43447466 72.59457564 425.57084208 71.18824115 427.70703125 69.78149414 C428.95677842 68.96461958 430.20676138 68.14810557 431.45703125 67.33203125 C432.51188721 66.64020752 433.56674316 65.94838379 434.65356445 65.2355957 C441.98636162 60.89265373 449.70276623 59.27839835 458.0390625 61.0703125 C468.1504891 63.81699853 474.99380845 69.58187938 480.70703125 78.33203125 C484.04620662 85.46932079 483.67020504 95.75170653 481.875 103.28515625 C476.38792249 116.88459405 461.3839362 127.43906907 450.55078125 136.76171875 C447.83638764 139.14009459 445.18554243 141.58635629 442.53125 144.03125 C438.5984747 147.65222893 434.62910777 151.22084108 430.58984375 154.72265625 C428.0416835 156.9613625 425.53714407 159.24535212 423.03125 161.53125 C419.91217989 164.37649228 416.78369609 167.2032458 413.59375 169.96875 C409.64457633 173.39893576 405.80102695 176.94128518 401.95336914 180.48413086 C398.56240423 183.60112165 395.12616105 186.65382682 391.640625 189.6640625 C389.49445365 191.56382158 387.40354383 193.51699833 385.31298828 195.47753906 C360.90034863 218.2481427 335.9608203 222.57725703 304.08333158 227.17733669 C301.72042833 227.51876914 299.35784309 227.86232351 296.99534988 228.20658112 C288.70943668 229.41389137 280.42241778 230.61325413 272.13427734 231.80517578 C264.47903876 232.90629849 256.82653309 234.02513996 249.17508924 235.15230155 C242.5459739 236.12802031 235.91506664 237.09086589 229.28270113 238.04423928 C225.34798786 238.61005541 221.41412771 239.18061219 217.48203659 239.76439667 C169.98716602 246.80059507 169.98716602 246.80059507 152.82421875 239.66796875 C148.6811759 237.98733904 144.51580256 236.37677243 140.33203125 234.80078125 C134.63216608 232.64794304 128.94189554 230.47150032 123.2578125 228.27734375 C113.27377791 224.42487712 103.2734859 220.61544013 93.27172852 216.80926514 C89.53757146 215.38815701 85.80377901 213.96609228 82.06997681 212.54405212 C78.55715711 211.20621698 75.04420893 209.86871949 71.53125 208.53125 C71.3465918 209.35036865 71.16193359 210.1694873 70.97167969 211.01342773 C70.71805664 212.09052002 70.46443359 213.1676123 70.203125 214.27734375 C69.9565918 215.3439624 69.71005859 216.41058105 69.45605469 217.50952148 C68.15263338 221.76835083 66.11096079 224.8760513 62.53125 227.53125 C57.56820415 229.97808712 53.96482419 230.91045182 48.34594727 230.93530273 C47.66527191 230.94216599 46.98459656 230.94902924 46.28329468 230.95610046 C44.05453056 230.97425919 41.82647777 230.97054699 39.59765625 230.96484375 C38.03498611 230.96941085 36.47231797 230.97471799 34.90965271 230.98072815 C31.64240331 230.98963779 28.37539862 230.98726082 25.1081543 230.97729492 C20.93757252 230.96580824 16.76783785 230.98602232 12.59736729 231.01521206 C9.37239793 231.03362801 6.14762956 231.03327093 2.92262077 231.02757454 C1.38574981 231.02742198 -0.15113535 231.03341185 -1.68795586 231.04586601 C-16.68323089 231.15027994 -16.68323089 231.15027994 -23.46875 226.53125 C-27.85344053 222.20491707 -29.57743719 219.09069526 -29.62114179 212.91872251 C-29.62163955 212.1284698 -29.62213731 211.33821709 -29.62265015 210.52401733 C-29.6270324 209.68674122 -29.63141465 208.84946512 -29.6359297 207.986817 C-29.64934627 205.16487449 -29.65550301 202.34296322 -29.66162109 199.52099609 C-29.66951992 197.50414894 -29.67778873 195.48730321 -29.68640137 193.47045898 C-29.71265065 186.83188228 -29.72793362 180.19329917 -29.7421875 173.5546875 C-29.74754631 171.27096172 -29.75292382 168.98723598 -29.75831985 166.70351028 C-29.77995437 157.20377588 -29.79869097 147.7040432 -29.80994225 138.20429039 C-29.82617938 124.58344119 -29.85934516 110.96287739 -29.91634309 97.34213579 C-29.95503778 87.76922582 -29.9745745 78.19639218 -29.97986281 68.62340605 C-29.98351738 62.90424779 -29.99554992 57.18539371 -30.02796555 51.46632004 C-30.05803693 46.08347994 -30.0643611 40.70112821 -30.05258179 35.31822205 C-30.05236097 33.34456691 -30.06067312 31.37088918 -30.07823563 29.39731216 C-30.10094692 26.69775036 -30.0926235 23.99995643 -30.07675171 21.30038452 C-30.0906338 20.52351614 -30.10451588 19.74664777 -30.11881864 18.94623792 C-30.03449295 13.1053475 -28.19546449 9.03275712 -24.46875 4.53125 C-17.65099445 -1.17256538 -8.38645122 -0.04975618 0 0 Z M-12.46875 16.53125 C-14.91272148 20.19720723 -14.74839535 22.92320779 -14.72271729 27.16088867 C-14.72583727 27.9453773 -14.72895725 28.72986593 -14.73217177 29.53812695 C-14.74016948 32.17523326 -14.73382127 34.81211059 -14.72753906 37.44921875 C-14.73024814 39.33639664 -14.7338086 41.22357347 -14.73815918 43.11074829 C-14.74729537 48.24286606 -14.74373386 53.37490364 -14.73740101 58.50702286 C-14.73234738 63.87081371 -14.73703068 69.23459756 -14.74017334 74.59838867 C-14.74381485 83.60694617 -14.73900905 92.61547091 -14.72949219 101.62402344 C-14.71860729 112.04810429 -14.72213274 122.47210692 -14.733145 132.89618587 C-14.74221262 141.83635345 -14.74350572 150.77649744 -14.73826766 159.71666813 C-14.73514507 165.06050461 -14.73474654 170.40430429 -14.74134064 175.74813843 C-14.74710584 180.77137297 -14.74313236 185.79450637 -14.73155212 190.81772995 C-14.72890111 192.66446133 -14.72967812 194.51120118 -14.73407745 196.35792923 C-14.73951697 198.87260597 -14.7327183 201.38695561 -14.72271729 203.90161133 C-14.72717873 204.63788852 -14.73164017 205.37416571 -14.73623681 206.13275433 C-14.70762948 209.82384699 -14.5740956 211.37323161 -12.46875 214.53125 C-9.65541687 214.99214871 -9.65541687 214.99214871 -6.30664062 214.91943359 C-4.36452698 214.93361832 -4.36452698 214.93361832 -2.38317871 214.9480896 C-0.96378271 214.94272008 0.45561051 214.93656718 1.875 214.9296875 C3.32466783 214.93170754 4.77433468 214.93461839 6.22399902 214.93838501 C9.26385157 214.94281171 12.30343986 214.93636652 15.34326172 214.92236328 C19.24431134 214.90527082 23.14474184 214.91511021 27.04576874 214.93308067 C30.03974085 214.94390941 33.03356562 214.94047645 36.02754211 214.9326973 C37.46609062 214.93069275 38.90465242 214.93316349 40.34318542 214.94013596 C42.35183464 214.94773459 44.36053061 214.93410399 46.36914062 214.91943359 C48.0855072 214.91585342 48.0855072 214.91585342 49.83654785 214.91220093 C50.72579956 214.78648712 51.61505127 214.66077332 52.53125 214.53125 C54.64416892 211.36187162 54.78319105 210.59452768 54.79626465 206.96995544 C54.80453781 206.03475067 54.81281097 205.0995459 54.82133484 204.13600159 C54.82035294 203.11199753 54.81937103 202.08799347 54.81835938 201.03295898 C54.82519241 199.95308716 54.83202545 198.87321533 54.83906555 197.76062012 C54.85266774 195.41324895 54.86171189 193.06584803 54.86677551 190.71844292 C54.87504221 187.00840205 54.8955254 183.29860999 54.91931152 179.58863831 C54.97170911 171.04523335 55.00583844 162.50177742 55.03907013 153.95828247 C55.07216743 145.50424876 55.11296155 137.05032003 55.16719055 128.59639168 C55.18733451 124.93244477 55.19559337 121.26858988 55.20349121 117.604599 C55.21645719 115.36977803 55.22997655 113.13496018 55.24414062 110.90014648 C55.24315872 109.87411819 55.24217682 108.8480899 55.24116516 107.79096985 C55.24943832 106.8585849 55.25771149 105.92619995 55.26623535 104.96556091 C55.26916847 104.15274879 55.27210159 103.33993666 55.2751236 102.50249386 C55.53125 100.53125 55.53125 100.53125 57.53125 98.53125 C59.625 98.265625 59.625 98.265625 62.03125 98.28125 C62.8253125 98.27609375 63.619375 98.2709375 64.4375 98.265625 C66.53125 98.53125 66.53125 98.53125 68.53125 100.53125 C69.84577911 104.57217295 69.7059077 108.6719958 69.73657227 112.87988281 C69.74647186 113.71927399 69.75637146 114.55866516 69.76657104 115.42349243 C69.79811998 118.19375808 69.82291735 120.96404086 69.84765625 123.734375 C69.86823148 125.65680381 69.8892281 127.57922816 69.91062927 129.50164795 C69.96579116 134.55847555 70.01522639 139.61534357 70.06347656 144.67224121 C70.11373454 149.83361403 70.16939818 154.99492821 70.22460938 160.15625 C70.33211899 170.2811999 70.43357995 180.40620073 70.53125 190.53125 C83.44483373 195.75674369 96.41234472 200.79954711 109.46875 205.65625 C112.94315052 206.95194183 116.41695995 208.24921288 119.890625 209.546875 C120.76510788 209.87336029 121.63959076 210.19984558 122.54057312 210.53622437 C128.75969238 212.86093314 134.96818455 215.21257992 141.171875 217.578125 C142.44938377 218.06459 142.44938377 218.06459 143.75270081 218.56088257 C150.40760045 221.09515597 150.40760045 221.09515597 153.62643433 222.32965088 C155.86816226 223.18931953 158.11163173 224.04429212 160.35546875 224.8984375 C161.01198425 225.15187927 161.66849976 225.40532104 162.34490967 225.66644287 C175.22896711 230.5520097 189.05498717 227.48683649 202.35424805 225.53759766 C203.76547631 225.33495451 205.1767742 225.13279568 206.58813477 224.93107605 C210.37177294 224.38875931 214.15434416 223.83932949 217.93669868 223.28813982 C221.11221401 222.82611578 224.28826 222.36779918 227.4643119 221.90948045 C234.96173318 220.82755502 242.45831333 219.73994151 249.9543457 218.6484375 C257.65426731 217.52732531 265.35540175 216.41485764 273.05721062 215.30679095 C279.70629166 214.34992888 286.35465673 213.38820504 293.00246459 212.42253721 C296.95712768 211.84809316 300.91200965 211.2752986 304.86755943 210.70698929 C308.58591949 210.17249805 312.30333775 209.63186232 316.02014923 209.08670998 C318.0138221 208.79574823 320.00836814 208.51078862 322.00294495 208.22608948 C332.43576086 206.68568096 342.91055385 204.9380832 352.40625 200.15625 C353.40688477 199.65557007 353.40688477 199.65557007 354.42773438 199.14477539 C361.70172701 195.26261731 367.31635927 189.76394368 373.08886719 183.96142578 C374.87480644 182.19060111 376.74400218 180.53913652 378.65625 178.90625 C382.00918896 176.01380051 385.27438802 173.03085907 388.53125 170.03125 C392.44101768 166.4310711 396.38991603 162.88707277 400.40625 159.40625 C403.14948418 156.98574925 405.84009568 154.50924358 408.53125 152.03125 C412.44106595 148.43112244 416.38991468 144.88707395 420.40625 141.40625 C423.14948418 138.98574925 425.84009568 136.50924358 428.53125 134.03125 C432.44106595 130.43112244 436.38991468 126.88707395 440.40625 123.40625 C443.68042459 120.51727242 446.88508587 117.55250963 450.09179688 114.58911133 C453.01594875 111.89358343 455.98851577 109.27896107 459.03125 106.71875 C462.84709308 103.34808862 466.07984827 100.40423394 466.90625 95.14453125 C467.1793147 89.43577239 466.41816276 85.94342124 462.53125 81.53125 C459.11015255 77.91466127 455.98213639 76.61704774 451.09379578 76.34228516 C443.07429765 76.93365146 435.53387074 83.3973111 429.23046875 87.96875 C422.26924506 92.92668288 415.25417056 97.77294743 408.11328125 102.46875 C406.8084227 103.32875359 406.8084227 103.32875359 405.47720337 104.20613098 C400.83484821 107.25866285 396.17724962 110.28623987 391.50683594 113.2956543 C377.46905183 122.37748354 377.46905183 122.37748354 364.37013245 132.74382019 C362.40521541 134.39312614 360.38452208 135.87286799 358.28125 137.34375 C357.74432085 137.72403477 357.2073917 138.10431953 356.65419197 138.49612808 C345.48829868 146.16547119 336.37171981 147.66049118 323.00716209 147.02699089 C317.73768055 146.78520888 312.46492355 146.72065799 307.19091797 146.63989258 C305.52648982 146.60996767 305.52648982 146.60996767 303.82843685 146.57943821 C291.01937323 146.40141007 278.28743136 147.17998505 265.51171875 148.02734375 C264.33365032 148.1038447 263.15558189 148.18034565 261.94181442 148.25916481 C254.74456303 148.72801396 247.54895832 149.21863386 240.35375977 149.71789551 C230.64249727 150.38807633 220.92914005 151.02747296 211.21608925 151.67109871 C207.90462641 151.89277712 204.59367271 152.12095397 201.28276062 152.35069275 C195.03420222 152.77967785 188.7838659 153.16652198 182.53125 153.53125 C181.35760014 153.60224537 180.18395027 153.67324074 178.97473526 153.74638748 C175.34369807 153.95795494 171.71217814 154.14274653 168.0793457 154.32055664 C166.97277461 154.3871646 165.86620352 154.45377256 164.72609997 154.52239895 C153.79848252 155.00177263 145.02498644 152.55869931 136.53125 145.53125 C133.72149278 142.30829319 133.51032485 141.14854191 133.65625 136.84375 C134.53125 133.53125 134.53125 133.53125 137.53125 131.53125 C140.75846609 130.9308377 142.72701183 131.01716835 145.5234375 132.8046875 C146.87308154 133.84875176 148.20160988 134.92087984 149.50390625 136.0234375 C155.03975183 140.14065599 160.06492902 139.66028561 166.65795898 139.25585938 C167.66871963 139.20259239 168.67948027 139.14932541 169.72087002 139.09444427 C172.99177549 138.91854477 176.26141012 138.72588364 179.53125 138.53125 C181.67137323 138.41014426 183.81152015 138.28945651 185.95169067 138.16918945 C192.80362573 137.77785106 199.65376665 137.35893642 206.50390625 136.9375 C209.01256289 136.78429693 211.52122491 136.6311818 214.02989197 136.47814941 C219.23428834 136.16016285 224.43858623 135.84061917 229.64282227 135.52001953 C235.64204444 135.15062773 241.64147083 134.78476803 247.64102751 134.42086458 C253.46379856 134.06752207 259.28635073 133.71067941 265.10882378 133.35246277 C267.56833317 133.20157015 270.02790354 133.05166797 272.48753548 132.90278625 C275.90863082 132.6953545 279.32945709 132.48393165 282.75024414 132.27148438 C284.2626619 132.1810511 284.2626619 132.1810511 285.80563354 132.08879089 C290.44189242 131.79684285 294.96207384 131.42249246 299.53125 130.53125 C298.38287699 121.36140581 296.22706398 113.66498107 289.28125 107.21875 C281.46903742 101.30537587 273.63969841 99.8010332 264.02734375 98.99609375 C262.1608744 98.82121681 262.1608744 98.82121681 260.25669861 98.64280701 C256.01685948 98.24836903 251.77429475 97.88925078 247.53125 97.53125 C245.95711758 97.39660316 244.3830009 97.26177234 242.80889893 97.12677002 C234.28310248 96.39751126 225.75596503 95.68424708 217.22851562 94.97460938 C216.35640253 94.90194666 215.48428944 94.82928394 214.58574867 94.75441933 C210.11568136 94.38290814 205.64526801 94.01662316 201.17407227 93.65893555 C196.74993262 93.30457431 192.3271321 92.93631437 187.9048748 92.55921745 C186.2505862 92.42066336 184.59587734 92.28701859 182.94075203 92.1588459 C168.43445525 91.03198104 155.67732312 88.06577152 142.53125 81.53125 C141.5621167 81.05993652 140.5929834 80.58862305 139.59448242 80.10302734 C132.56947118 76.64702391 125.69443987 72.94373816 118.84375 69.15625 C103.46717934 60.66523102 88.24860299 54.57261192 70.53125 53.53125 C70.45777344 55.39330078 70.45777344 55.39330078 70.3828125 57.29296875 C70.30775201 58.93491694 70.23220561 60.57684297 70.15625 62.21875 C70.1253125 63.03537109 70.094375 63.85199219 70.0625 64.69335938 C69.85333237 68.99872644 69.60396665 72.65057977 67.53125 76.53125 C64.95113772 78.55848108 63.70725856 78.54533068 60.40625 78.28125 C57.53125 77.53125 57.53125 77.53125 55.53125 75.53125 C55.26623535 73.18495178 55.26623535 73.18495178 55.24414062 70.21118164 C55.23072632 69.09985367 55.21731201 67.9885257 55.20349121 66.84352112 C55.19557556 65.03572426 55.19557556 65.03572426 55.1875 63.19140625 C55.1728772 61.95837265 55.15825439 60.72533905 55.14318848 59.4549408 C55.09654203 55.50126332 55.06202046 51.54757395 55.03125 47.59375 C54.99076704 42.39696655 54.93657953 37.20048449 54.875 32.00390625 C54.86708435 30.19914574 54.86708435 30.19914574 54.85900879 28.35792542 C54.84559448 27.24344528 54.83218018 26.12896515 54.81835938 24.98071289 C54.80742249 23.50750328 54.80742249 23.50750328 54.79626465 22.00453186 C54.69719062 19.27869089 54.69719062 19.27869089 52.53125 16.53125 C49.71791687 16.07035129 49.71791687 16.07035129 46.36914062 16.14306641 C45.07439819 16.13360992 43.77965576 16.12415344 42.44567871 16.1144104 C41.02628271 16.11977992 39.60688949 16.12593282 38.1875 16.1328125 C36.73783217 16.13079246 35.28816532 16.12788161 33.83850098 16.12411499 C30.79864843 16.11968829 27.75906014 16.12613348 24.71923828 16.14013672 C20.81818866 16.15722918 16.91775816 16.14738979 13.01673126 16.12941933 C10.02275915 16.11859059 7.02893438 16.12202355 4.03495789 16.1298027 C2.59640938 16.13180725 1.15784758 16.12933651 -0.28068542 16.12236404 C-2.28933464 16.11476541 -4.29803061 16.12839601 -6.30664062 16.14306641 C-8.0230072 16.14664658 -8.0230072 16.14664658 -9.77404785 16.15029907 C-10.66329956 16.27601288 -11.55255127 16.40172668 -12.46875 16.53125 Z " fill="#000000" transform="translate(29.46875,235.46875)"/>
<path d="M0 0 C0.65663623 -0.00367669 1.31327247 -0.00735338 1.98980677 -0.01114148 C4.18833171 -0.0221476 6.38680934 -0.02601687 8.58535767 -0.02983093 C10.16240081 -0.03609776 11.73944248 -0.04274475 13.31648254 -0.04974365 C18.49284848 -0.07075508 23.66921463 -0.08114122 28.84561157 -0.09111023 C30.62852621 -0.09515845 32.41144069 -0.09927539 34.19435501 -0.10346031 C42.56860264 -0.12250316 50.94284149 -0.13673781 59.3171066 -0.14507228 C68.98245632 -0.15485091 78.64757741 -0.18119047 88.31284654 -0.22157317 C95.78557257 -0.25172385 103.25823299 -0.26654004 110.73101866 -0.26985329 C115.19361943 -0.27220438 119.65597569 -0.28117279 124.1185112 -0.30631447 C128.31614984 -0.32958289 132.51338271 -0.33383352 136.71106911 -0.32355309 C138.25017076 -0.32305736 139.78929232 -0.32938865 141.3283329 -0.34310913 C143.43283436 -0.36081875 145.53587791 -0.35372864 147.64038086 -0.34057617 C148.81692419 -0.34296453 149.99346752 -0.34535288 151.20566368 -0.34781361 C156.00359885 0.38483996 159.19549743 2.59155523 162.21670532 6.34638977 C163.88185968 10.13659825 164.45013173 13.89530295 165.13467407 17.95967102 C168.36790896 34.90149526 176.73974446 49.59222523 190.52529907 60.20967102 C194.56274196 62.88690588 198.80510532 65.10926724 203.18179321 67.18281555 C208.66533399 69.8829177 211.75443428 73.16472472 214.75967407 78.45967102 C216.73227948 86.17076488 215.03191009 94.48606118 213.82217407 102.20967102 C213.64468628 103.34364319 213.46719849 104.47761536 213.28433228 105.64595032 C205.34606394 154.16133233 185.25796606 202.71272935 151.44326782 238.99873352 C149.62332161 240.95757974 147.91000034 242.97012977 146.19717407 245.02217102 C132.290493 260.86562731 114.63066312 273.66680939 96.44717407 284.14717102 C95.64892212 284.60849426 94.85067017 285.0698175 94.02822876 285.54512024 C91.51456072 286.97976688 88.98538521 288.38146858 86.44717407 289.77217102 C85.67003052 290.21069397 84.89288696 290.64921692 84.0921936 291.10102844 C79.2727258 293.67040916 74.95372581 295.42165561 69.44717407 294.14717102 C65.27312646 292.51724753 61.3812701 290.47218957 57.44717407 288.33467102 C56.34011108 287.74444153 55.2330481 287.15421204 54.09243774 286.5460968 C45.08203801 281.6625927 36.6265629 276.31000328 28.44717407 270.14717102 C27.85968384 269.71227356 27.2721936 269.2773761 26.66690063 268.82929993 C-26.22443081 229.51738847 -57.97267447 168.47846566 -68.99032593 104.20967102 C-69.1544397 103.2576178 -69.31855347 102.30556458 -69.48764038 101.32466125 C-70.85788489 92.63315508 -72.12919008 83.92847392 -67.91610718 75.90107727 C-64.57755751 71.60592311 -60.15973564 69.32475742 -55.36532593 66.95967102 C-48.81637637 63.49649769 -43.74121165 59.39983763 -38.55282593 54.14717102 C-37.91731812 53.53357727 -37.2818103 52.91998352 -36.62704468 52.28779602 C-26.98946737 42.28693975 -22.74782721 28.74412824 -20.61532593 15.33467102 C-19.62047882 9.61837741 -17.85622867 5.81713801 -13.05282593 2.33467102 C-8.63079454 0.23420611 -4.88980708 0.01777232 0 0 Z M137.22724915 15.18513489 C135.97508102 15.19354904 134.7229129 15.2019632 133.43280029 15.21063232 C132.05307005 15.22007438 130.67333982 15.22951967 129.29360962 15.2389679 C127.83476267 15.2488345 126.37591562 15.25868622 124.91706848 15.26852417 C120.96294419 15.29523154 117.00882133 15.32214711 113.05469871 15.34910011 C108.92004715 15.37724825 104.7853943 15.40520484 100.65074158 15.43318176 C92.8239784 15.48617027 84.99721639 15.53933099 77.1704548 15.59255362 C68.25878011 15.65314535 59.34710412 15.71354505 50.43542802 15.77392864 C32.10600859 15.89812912 13.77659079 16.02257071 -4.55282593 16.14717102 C-4.74255981 17.22313538 -4.9322937 18.29909973 -5.1277771 19.40766907 C-5.38767698 20.84562527 -5.64786489 22.28352944 -5.90829468 23.72138977 C-6.03200439 24.42743347 -6.15571411 25.13347717 -6.28317261 25.86091614 C-9.81914122 45.21129555 -20.48343064 63.13945162 -36.55282593 74.58467102 C-42.30184174 78.54828311 -48.31154151 82.0137915 -54.55282593 85.14717102 C-53.51907003 132.41800869 -31.03719755 184.40494447 -0.55282593 220.14717102 C0.41739904 221.30197371 1.38743653 222.45693392 2.35733032 223.61201477 C10.72585257 233.52847177 19.30173049 242.01100637 29.44717407 250.14717102 C30.21674438 250.79556946 30.9863147 251.4439679 31.77920532 252.11201477 C41.87580022 260.52297713 53.17501856 267.50108422 64.63467407 273.89717102 C65.2336853 274.24457336 65.83269653 274.59197571 66.44985962 274.9499054 C69.24021769 276.45449864 71.22639556 277.15124335 74.41201782 277.09248352 C78.16215493 275.92448715 81.44435359 274.23688572 84.82217407 272.27217102 C85.51480347 271.87433411 86.20743286 271.47649719 86.92105103 271.06660461 C99.70552076 263.59997786 111.41025374 254.995873 122.44717407 245.14717102 C122.97859009 244.67746887 123.5100061 244.20776672 124.05752563 243.72383118 C130.27858831 238.21133062 136.19626865 232.61065666 141.44717407 226.14717102 C141.87465942 225.63202942 142.30214478 225.11688782 142.74258423 224.58613586 C174.06937914 186.81376014 195.16389431 138.33103863 199.44717407 89.14717102 C199.5631897 88.2680304 199.67920532 87.38888977 199.79873657 86.48310852 C199.69502745 83.94075756 199.69502745 83.94075756 197.29873657 82.52998352 C196.35772095 82.0736554 195.41670532 81.61732727 194.44717407 81.14717102 C173.40646454 69.51147778 158.73442844 54.09013806 151.44717407 30.86201477 C150.04993639 25.6714951 149.11228501 20.47798558 148.44717407 15.14717102 C144.70699791 15.14296761 140.96733753 15.15975685 137.22724915 15.18513489 Z " fill="#000000" transform="translate(183.55282592773438,-0.1471710205078125)"/>
<path d="M0 0 C0.99811203 -0.00860046 1.99622406 -0.01720093 3.02458191 -0.02606201 C4.65797768 -0.03245193 4.65797768 -0.03245193 6.32437134 -0.03897095 C7.47599258 -0.04714844 8.62761383 -0.05532593 9.81413269 -0.06375122 C13.62694784 -0.08857471 17.43972591 -0.1051111 21.25259399 -0.11953735 C23.20517057 -0.12752287 23.20517057 -0.12752287 25.19719315 -0.13566971 C30.66689903 -0.15688895 36.13659286 -0.17602 41.60632896 -0.1872921 C49.43511847 -0.20353486 57.26341208 -0.23673697 65.09201467 -0.29369295 C70.60297154 -0.33241654 76.11379587 -0.35192738 81.6248852 -0.35721266 C84.91392082 -0.36086189 88.20230567 -0.37534414 91.49122238 -0.4053154 C95.16125161 -0.43685901 98.83002394 -0.43701937 102.50015259 -0.42959595 C104.12747566 -0.45420395 104.12747566 -0.45420395 105.78767395 -0.47930908 C114.00631075 -0.41119804 114.00631075 -0.41119804 117.68147278 2.55679321 C119.79768547 4.88543848 121.0524599 6.49827018 122.13150024 9.41171265 C122.43692749 10.19675171 122.74235474 10.98179077 123.05703735 11.7906189 C123.36133667 12.61175171 123.66563599 13.43288452 123.97915649 14.27890015 C126.97370125 21.82357873 130.1991428 28.58637084 135.04165649 35.15390015 C135.68360962 36.05108765 136.32556274 36.94827515 136.98696899 37.87265015 C143.64118593 46.61398309 152.06276057 53.41089903 161.34243774 59.2203064 C164.13104863 61.21793648 164.82779647 62.06035707 166.04165649 65.15390015 C166.98119695 72.55152739 165.38510124 79.83510281 163.79165649 87.02890015 C163.48421509 88.55643921 163.48421509 88.55643921 163.17056274 90.11483765 C162.95786743 91.09452515 162.74517212 92.07421265 162.52603149 93.08358765 C162.3375061 93.96256714 162.14898071 94.84154663 161.95474243 95.74716187 C160.83395935 98.70135428 159.48689998 100.17396185 157.04165649 102.15390015 C152.72191487 102.86076696 150.76682931 102.60713316 147.04165649 100.27890015 C144.0586421 95.61794015 144.91851263 92.41946287 146.04165649 87.15390015 C147.26667264 81.7915409 148.62405485 76.46825794 150.04165649 71.15390015 C149.35329712 70.93347046 148.66493774 70.71304077 147.95571899 70.4859314 C128.78145653 61.72128864 116.14835421 39.55905599 107.85415649 21.3609314 C107.04165649 19.15390015 107.04165649 19.15390015 107.04165649 16.15390015 C71.40165649 16.15390015 35.76165649 16.15390015 -0.95834351 16.15390015 C-1.94834351 19.45390015 -2.93834351 22.75390015 -3.95834351 26.15390015 C-5.10577113 28.70316243 -6.24316149 31.09424732 -7.58334351 33.52890015 C-7.93251831 34.16755005 -8.28169312 34.80619995 -8.64144897 35.46420288 C-16.65331621 49.75838576 -28.17001593 63.13586194 -41.95834351 72.15390015 C-42.61834351 72.15390015 -43.27834351 72.15390015 -43.95834351 72.15390015 C-43.68119507 73.2624939 -43.40404663 74.37108765 -43.11849976 75.51327515 C-42.06511434 79.72681681 -41.01172892 83.94035848 -39.95834351 88.15390015 C-39.77972778 88.82195679 -39.60111206 89.49001343 -39.41708374 90.17831421 C-38.69468639 93.28935166 -38.67460383 95.97601577 -38.95834351 99.15390015 C-40.52084351 101.59140015 -40.52084351 101.59140015 -42.95834351 103.15390015 C-46.39584351 103.71640015 -46.39584351 103.71640015 -49.95834351 103.15390015 C-55.61608225 99.00604873 -56.43945612 93.98365051 -57.77084351 87.46640015 C-57.98676147 86.52345093 -58.20267944 85.58050171 -58.42514038 84.60897827 C-61.71373917 69.41878388 -61.71373917 69.41878388 -58.88827515 64.16366577 C-55.40934969 59.58616826 -50.45944881 56.58304991 -45.82162476 53.29452515 C-31.95517641 42.92779432 -23.36788573 29.10747807 -17.82113647 12.94345093 C-15.82109776 7.35690589 -13.96720877 4.43691287 -8.95834351 1.15390015 C-5.94112638 0.16787933 -3.1627715 0.02034937 0 0 Z " fill="#000000" transform="translate(202.95834350585938,27.846099853515625)"/>
<path d="M0 0 C1.64452004 2.4189563 2.70027756 4.35496945 3.8125 7 C4.48862734 8.46258856 5.16846163 9.92346789 5.8515625 11.3828125 C6.3760498 12.52411621 6.3760498 12.52411621 6.91113281 13.68847656 C15.63560816 32.20940316 27.3016565 48.99537027 41.6328125 63.59765625 C42.90143921 64.89890479 44.1396483 66.22962054 45.375 67.5625 C54.71034144 77.40245449 65.89928063 85.55828872 77.25 92.9375 C78.24515625 93.58589844 79.2403125 94.23429687 80.265625 94.90234375 C82.919279 96.27079586 82.919279 96.27079586 85.50390625 95.41796875 C98.20272144 88.20408782 109.36237816 78.93927415 120 69 C120.87527344 68.19046875 121.75054687 67.3809375 122.65234375 66.546875 C139.66505135 50.24201319 151.67181444 29.81462958 161.38500977 8.52709961 C161.81483154 7.5913208 162.24465332 6.65554199 162.6875 5.69140625 C163.25017578 4.44145874 163.25017578 4.44145874 163.82421875 3.16625977 C165.02451927 0.95482568 166.0086597 -0.46551445 168 -2 C174.79245283 -2.75471698 174.79245283 -2.75471698 178.5 -0.4375 C180.58099779 2.94412141 180.30757913 5.04940569 180 9 C179.14713336 11.87347683 177.95478207 14.53723373 176.6875 17.25 C176.33284668 18.02504883 175.97819336 18.80009766 175.61279297 19.59863281 C159.12012656 54.78769664 133.56543385 84.7064339 101.0625 106 C100.36455322 106.45737549 99.66660645 106.91475098 98.94750977 107.38598633 C88.67463089 113.94856479 88.67463089 113.94856479 82.75 114.0625 C55.2594457 106.27350961 26.57038262 76.69014495 11 54 C10.57734863 53.39462402 10.15469727 52.78924805 9.71923828 52.16552734 C-14.42940107 17.30175403 -14.42940107 17.30175403 -13.8125 5.375 C-13.02077323 2.08628882 -12.71865399 0.88214507 -10 -1 C-5.88978729 -2.3700709 -3.9640144 -1.67456714 0 0 Z " fill="#000000" transform="translate(173,149)"/>
<path d="M0 0 C2 2 2 2 2.38110352 5.67749023 C2.25066096 10.26374228 0.45433966 13.44473923 -2.09765625 17.16015625 C-2.54069595 17.8359523 -2.98373566 18.51174835 -3.44020081 19.20802307 C-4.94129962 21.48515446 -6.46957742 23.74248815 -8 26 C-9.12315005 27.68151678 -10.24535264 29.36366673 -11.36669922 31.04638672 C-15.03147555 36.52745674 -18.73244124 41.98361154 -22.4375 47.4375 C-24.93840256 51.1222083 -27.43679748 54.80860196 -29.93359375 58.49609375 C-30.53666351 59.38461029 -31.13973328 60.27312683 -31.76107788 61.18856812 C-34.62517029 65.4225816 -37.44924642 69.6738436 -40.18408203 73.99267578 C-40.6785231 74.7719191 -41.17296417 75.55116241 -41.68238831 76.35401917 C-42.59329753 77.7980918 -43.49671357 79.24693258 -44.39073181 80.70152283 C-46.81801459 84.55438474 -49.09389056 87.48521634 -53 90 C-57.63457993 90.21606433 -60.23009193 89.10555402 -63.6484375 86.15625 C-64.90530592 84.95264577 -66.14702542 83.73306925 -67.375 82.5 C-68.03056885 81.86505615 -68.6861377 81.2301123 -69.36157227 80.57592773 C-71.25714468 78.73275668 -73.13203107 76.87109523 -75 75 C-75.88816406 74.11441406 -76.77632812 73.22882813 -77.69140625 72.31640625 C-79.13357516 70.8692211 -80.57146367 69.41775056 -82.00390625 67.9609375 C-84.64399631 65.36734609 -87.43121398 62.97398835 -90.2734375 60.60546875 C-93.13429655 57.94525818 -94.83732491 55.95571615 -95.5 52.0625 C-94.81810427 47.88588865 -93.36996335 46.49084248 -90 44 C-86.49055382 43.56549714 -84.61055777 43.64295433 -81.53515625 45.44140625 C-75.03296458 51.01911569 -68.93704918 56.90507128 -62.95141602 63.03344727 C-62.33709717 63.66178467 -61.72277832 64.29012207 -61.08984375 64.9375 C-60.54191162 65.50339844 -59.99397949 66.06929688 -59.42944336 66.65234375 C-58.02169245 68.10922193 -58.02169245 68.10922193 -56 69 C-55.75878418 68.31220459 -55.51756836 67.62440918 -55.26904297 66.91577148 C-53.76567219 63.46160504 -51.80073071 60.45247031 -49.6953125 57.34765625 C-49.26360748 56.7028833 -48.83190247 56.05811035 -48.38711548 55.39379883 C-46.97073613 53.28042593 -45.54794387 51.17145729 -44.125 49.0625 C-43.14049815 47.5965765 -42.15645412 46.13034542 -41.17285156 44.66381836 C-39.6526652 42.39765061 -38.13200666 40.13181047 -36.60949707 37.86720276 C-33.11056071 32.66233092 -29.63098161 27.44499509 -26.1640625 22.21875 C-25.24333805 20.83194241 -24.3226026 19.44514213 -23.40185547 18.05834961 C-22.08154705 16.06951192 -20.76179665 14.0803168 -19.44390869 12.08987427 C-18.23035281 10.25771537 -17.01394438 8.42748235 -15.796875 6.59765625 C-15.10948242 5.56133057 -14.42208984 4.52500488 -13.71386719 3.45727539 C-10.86304282 -0.63012451 -10.86304282 -0.63012451 -8.25 -1.75 C-5.09371959 -2.10069782 -2.90646006 -1.20049437 0 0 Z " fill="#000000" transform="translate(308,91)"/>
<path d="M0 0 C5.19337089 4.07297362 8.67673963 9.42032833 10.1015625 15.83203125 C10.95712775 24.77657706 10.04367407 32.5112019 4.59375 39.8671875 C-0.41010297 45.34815203 -5.8648268 48.33137231 -13.234375 49.24609375 C-22.35872578 49.62215159 -29.02194954 48.08048667 -35.9609375 42.03515625 C-41.57983946 36.18213337 -43.93287163 29.94325281 -44.3359375 21.89453125 C-44.03573874 14.14940314 -41.38864854 8.02673113 -36.0859375 2.39453125 C-25.71135314 -7.17014132 -11.82616576 -7.27576864 0 0 Z M-23.8984375 13.83203125 C-24.4759375 14.22390625 -25.0534375 14.61578125 -25.6484375 15.01953125 C-27.72701284 18.03346549 -28.13476826 21.26006059 -27.8984375 24.83203125 C-25.93034676 28.62763483 -24.4551292 30.46090345 -20.8984375 32.83203125 C-15.76908036 33.48562362 -15.76908036 33.48562362 -11.078125 31.78125 C-8.90834668 30.00454746 -7.16089309 28.35694243 -5.8984375 25.83203125 C-5.5239964 20.87068672 -5.65945617 17.71880884 -8.8984375 13.83203125 C-14.67730467 10.26634725 -18.28254795 9.94410772 -23.8984375 13.83203125 Z " fill="#000000" transform="translate(64.8984375,388.16796875)"/>
</svg>
